<mxfile host="65bd71144e">
    <diagram id="diagram1" name="Spring App">
        <mxGraphModel dx="3503" dy="2053" grid="1" gridSize="10" guides="1" tooltips="1" connect="1" arrows="1" fold="1" page="1" pageScale="1" pageWidth="850" pageHeight="1100" math="0" shadow="0">
            <root>
                <mxCell id="0"/>
                <mxCell id="1" parent="0"/>
                <mxCell id="2" value="ir.netpick.scrape" style="swimlane;html=1;startSize=30;horizontal=1;fillColor=none;swimlaneFillColor=none;collapsible=1;swimlaneLine=1;strokeColor=#000000;rounded=0;align=center;verticalAlign=top;fontStyle=1;whiteSpace=wrap;" parent="1" vertex="1">
                    <mxGeometry x="240" y="240" width="375" height="16888" as="geometry"/>
                </mxCell>
                <mxCell id="3" value="bootstrap" style="swimlane;html=1;startSize=30;horizontal=1;fillColor=none;swimlaneFillColor=none;collapsible=1;swimlaneLine=1;strokeColor=#000000;rounded=0;align=center;verticalAlign=top;fontStyle=1;whiteSpace=wrap;" parent="2" vertex="1">
                    <mxGeometry x="20" y="50" width="335" height="492" as="geometry"/>
                </mxCell>
                <mxCell id="4" value="&amp;laquo;@Component&amp;raquo;&lt;br&gt;&lt;b&gt;Seeder&lt;/b&gt;" style="swimlane;fontStyle=1;align=center;verticalAlign=top;childLayout=stackLayout;horizontal=1;startSize=30;fillColor=#ffffff;swimlaneFillColor=#ffffff;strokeColor=#000000;html=1;whiteSpace=wrap;" parent="3" vertex="1">
                    <mxGeometry x="20" y="50" width="295" height="422" as="geometry"/>
                </mxCell>
                <mxCell id="5" value="- logger: Logger" style="text;strokeColor=none;fillColor=none;align=left;verticalAlign=top;spacingLeft=4;spacingRight=4;overflow=hidden;rotatable=0;points=[[0,0.5],[1,0.5]];portConstraint=eastwest;whiteSpace=wrap;rounded=0;html=1;" parent="4" vertex="1">
                    <mxGeometry y="30" width="295" height="26" as="geometry"/>
                </mxCell>
                <mxCell id="6" value="- roleRepository: RoleRepository" style="text;strokeColor=none;fillColor=none;align=left;verticalAlign=top;spacingLeft=4;spacingRight=4;overflow=hidden;rotatable=0;points=[[0,0.5],[1,0.5]];portConstraint=eastwest;whiteSpace=wrap;rounded=0;html=1;" parent="4" vertex="1">
                    <mxGeometry y="56" width="295" height="26" as="geometry"/>
                </mxCell>
                <mxCell id="7" value="- userRepository: UserRepository" style="text;strokeColor=none;fillColor=none;align=left;verticalAlign=top;spacingLeft=4;spacingRight=4;overflow=hidden;rotatable=0;points=[[0,0.5],[1,0.5]];portConstraint=eastwest;whiteSpace=wrap;rounded=0;html=1;" parent="4" vertex="1">
                    <mxGeometry y="82" width="295" height="26" as="geometry"/>
                </mxCell>
                <mxCell id="8" value="- passwordEncoder: PasswordEncoder" style="text;strokeColor=none;fillColor=none;align=left;verticalAlign=top;spacingLeft=4;spacingRight=4;overflow=hidden;rotatable=0;points=[[0,0.5],[1,0.5]];portConstraint=eastwest;whiteSpace=wrap;rounded=0;html=1;" parent="4" vertex="1">
                    <mxGeometry y="108" width="295" height="26" as="geometry"/>
                </mxCell>
                <mxCell id="9" value="" style="line;strokeColor=none;fillColor=none;align=left;verticalAlign=middle;spacingLeft=4;spacingRight=4;overflow=hidden;rotatable=0;points=[[0,0.5],[1,0.5]];portConstraint=eastwest;" parent="4" vertex="1">
                    <mxGeometry y="134" width="295" height="2" as="geometry"/>
                </mxCell>
                <mxCell id="10" value="- createSuperAdmin(): void" style="text;strokeColor=none;fillColor=none;align=left;verticalAlign=top;spacingLeft=4;spacingRight=4;overflow=hidden;rotatable=0;points=[[0,0.5],[1,0.5]];portConstraint=eastwest;whiteSpace=wrap;rounded=0;html=1;" parent="4" vertex="1">
                    <mxGeometry y="136" width="295" height="26" as="geometry"/>
                </mxCell>
                <mxCell id="11" value="- lambda$0(arg0: Map, arg1: RoleEnum): void" style="text;strokeColor=none;fillColor=none;align=left;verticalAlign=top;spacingLeft=4;spacingRight=4;overflow=hidden;rotatable=0;points=[[0,0.5],[1,0.5]];portConstraint=eastwest;whiteSpace=wrap;rounded=0;html=1;" parent="4" vertex="1">
                    <mxGeometry y="162" width="295" height="52" as="geometry"/>
                </mxCell>
                <mxCell id="12" value="- lambda$2(arg0: RoleEnum, arg1: Map): void" style="text;strokeColor=none;fillColor=none;align=left;verticalAlign=top;spacingLeft=4;spacingRight=4;overflow=hidden;rotatable=0;points=[[0,0.5],[1,0.5]];portConstraint=eastwest;whiteSpace=wrap;rounded=0;html=1;" parent="4" vertex="1">
                    <mxGeometry y="214" width="295" height="52" as="geometry"/>
                </mxCell>
                <mxCell id="13" value="- loadRoles(): void" style="text;strokeColor=none;fillColor=none;align=left;verticalAlign=top;spacingLeft=4;spacingRight=4;overflow=hidden;rotatable=0;points=[[0,0.5],[1,0.5]];portConstraint=eastwest;whiteSpace=wrap;rounded=0;html=1;" parent="4" vertex="1">
                    <mxGeometry y="266" width="295" height="26" as="geometry"/>
                </mxCell>
                <mxCell id="14" value="+ onApplicationEvent(contextRefreshedEvent: ContextRefreshedEvent): void" style="text;strokeColor=none;fillColor=none;align=left;verticalAlign=top;spacingLeft=4;spacingRight=4;overflow=hidden;rotatable=0;points=[[0,0.5],[1,0.5]];portConstraint=eastwest;whiteSpace=wrap;rounded=0;html=1;" parent="4" vertex="1">
                    <mxGeometry y="292" width="295" height="78" as="geometry"/>
                </mxCell>
                <mxCell id="15" value="+ onApplicationEvent(arg0: ApplicationEvent): void" style="text;strokeColor=none;fillColor=none;align=left;verticalAlign=top;spacingLeft=4;spacingRight=4;overflow=hidden;rotatable=0;points=[[0,0.5],[1,0.5]];portConstraint=eastwest;whiteSpace=wrap;rounded=0;html=1;" parent="4" vertex="1">
                    <mxGeometry y="370" width="295" height="52" as="geometry"/>
                </mxCell>
                <mxCell id="16" value="bot" style="swimlane;html=1;startSize=30;horizontal=1;fillColor=none;swimlaneFillColor=none;collapsible=1;swimlaneLine=1;strokeColor=#000000;rounded=0;align=center;verticalAlign=top;fontStyle=1;whiteSpace=wrap;" parent="2" vertex="1">
                    <mxGeometry x="20" y="582" width="280" height="406" as="geometry"/>
                </mxCell>
                <mxCell id="17" value="&amp;laquo;@Controller&amp;raquo;&lt;br&gt;&lt;b&gt;GeminiController&lt;/b&gt;" style="swimlane;fontStyle=1;align=center;verticalAlign=top;childLayout=stackLayout;horizontal=1;startSize=30;fillColor=#ffffff;swimlaneFillColor=#ffffff;strokeColor=#000000;html=1;whiteSpace=wrap;" parent="16" vertex="1">
                    <mxGeometry x="20" y="50" width="240" height="214" as="geometry"/>
                </mxCell>
                <mxCell id="18" value="- gemini: GenerateTextFromTextInput" style="text;strokeColor=none;fillColor=none;align=left;verticalAlign=top;spacingLeft=4;spacingRight=4;overflow=hidden;rotatable=0;points=[[0,0.5],[1,0.5]];portConstraint=eastwest;whiteSpace=wrap;rounded=0;html=1;" parent="17" vertex="1">
                    <mxGeometry y="30" width="240" height="52" as="geometry"/>
                </mxCell>
                <mxCell id="19" value="- gson: Gson" style="text;strokeColor=none;fillColor=none;align=left;verticalAlign=top;spacingLeft=4;spacingRight=4;overflow=hidden;rotatable=0;points=[[0,0.5],[1,0.5]];portConstraint=eastwest;whiteSpace=wrap;rounded=0;html=1;" parent="17" vertex="1">
                    <mxGeometry y="82" width="240" height="26" as="geometry"/>
                </mxCell>
                <mxCell id="20" value="- apiCaller: ApiCaller" style="text;strokeColor=none;fillColor=none;align=left;verticalAlign=top;spacingLeft=4;spacingRight=4;overflow=hidden;rotatable=0;points=[[0,0.5],[1,0.5]];portConstraint=eastwest;whiteSpace=wrap;rounded=0;html=1;" parent="17" vertex="1">
                    <mxGeometry y="108" width="240" height="26" as="geometry"/>
                </mxCell>
                <mxCell id="21" value="" style="line;strokeColor=none;fillColor=none;align=left;verticalAlign=middle;spacingLeft=4;spacingRight=4;overflow=hidden;rotatable=0;points=[[0,0.5],[1,0.5]];portConstraint=eastwest;" parent="17" vertex="1">
                    <mxGeometry y="134" width="240" height="2" as="geometry"/>
                </mxCell>
                <mxCell id="22" value="+ text(text: String): ResponseEntity&amp;lt;String&amp;gt;" style="text;strokeColor=none;fillColor=none;align=left;verticalAlign=top;spacingLeft=4;spacingRight=4;overflow=hidden;rotatable=0;points=[[0,0.5],[1,0.5]];portConstraint=eastwest;whiteSpace=wrap;rounded=0;html=1;" parent="17" vertex="1">
                    <mxGeometry y="136" width="240" height="52" as="geometry"/>
                </mxCell>
                <mxCell id="23" value="+ api(): void" style="text;strokeColor=none;fillColor=none;align=left;verticalAlign=top;spacingLeft=4;spacingRight=4;overflow=hidden;rotatable=0;points=[[0,0.5],[1,0.5]];portConstraint=eastwest;whiteSpace=wrap;rounded=0;html=1;" parent="17" vertex="1">
                    <mxGeometry y="188" width="240" height="26" as="geometry"/>
                </mxCell>
                <mxCell id="24" value="&amp;laquo;@Service&amp;raquo;&lt;br&gt;&lt;b&gt;GenerateTextFromTextInput&lt;/b&gt;" style="swimlane;fontStyle=1;align=center;verticalAlign=top;childLayout=stackLayout;horizontal=1;startSize=30;fillColor=#ffffff;swimlaneFillColor=#ffffff;strokeColor=#000000;html=1;whiteSpace=wrap;" parent="16" vertex="1">
                    <mxGeometry x="20" y="304" width="240" height="82" as="geometry"/>
                </mxCell>
                <mxCell id="25" value="+ generateText(text: String): String" style="text;strokeColor=none;fillColor=none;align=left;verticalAlign=top;spacingLeft=4;spacingRight=4;overflow=hidden;rotatable=0;points=[[0,0.5],[1,0.5]];portConstraint=eastwest;whiteSpace=wrap;rounded=0;html=1;" parent="24" vertex="1">
                    <mxGeometry y="30" width="240" height="52" as="geometry"/>
                </mxCell>
                <mxCell id="26" value="controllers" style="swimlane;html=1;startSize=30;horizontal=1;fillColor=none;swimlaneFillColor=none;collapsible=1;swimlaneLine=1;strokeColor=#000000;rounded=0;align=center;verticalAlign=top;fontStyle=1;whiteSpace=wrap;" parent="2" vertex="1">
                    <mxGeometry x="20" y="1028" width="314" height="1670" as="geometry"/>
                </mxCell>
                <mxCell id="27" value="&amp;laquo;@Controller&amp;raquo;&lt;br&gt;&lt;b&gt;AdminController&lt;/b&gt;" style="swimlane;fontStyle=1;align=center;verticalAlign=top;childLayout=stackLayout;horizontal=1;startSize=30;fillColor=#ffffff;swimlaneFillColor=#ffffff;strokeColor=#000000;html=1;whiteSpace=wrap;" parent="26" vertex="1">
                    <mxGeometry x="20" y="50" width="240" height="162" as="geometry"/>
                </mxCell>
                <mxCell id="28" value="- authenticationService: AuthenticationService" style="text;strokeColor=none;fillColor=none;align=left;verticalAlign=top;spacingLeft=4;spacingRight=4;overflow=hidden;rotatable=0;points=[[0,0.5],[1,0.5]];portConstraint=eastwest;whiteSpace=wrap;rounded=0;html=1;" parent="27" vertex="1">
                    <mxGeometry y="30" width="240" height="52" as="geometry"/>
                </mxCell>
                <mxCell id="29" value="" style="line;strokeColor=none;fillColor=none;align=left;verticalAlign=middle;spacingLeft=4;spacingRight=4;overflow=hidden;rotatable=0;points=[[0,0.5],[1,0.5]];portConstraint=eastwest;" parent="27" vertex="1">
                    <mxGeometry y="82" width="240" height="2" as="geometry"/>
                </mxCell>
                <mxCell id="30" value="+ createAdministrator(request: AuthenticationSignupRequest): ResponseEntity&amp;lt;?&amp;gt;" style="text;strokeColor=none;fillColor=none;align=left;verticalAlign=top;spacingLeft=4;spacingRight=4;overflow=hidden;rotatable=0;points=[[0,0.5],[1,0.5]];portConstraint=eastwest;whiteSpace=wrap;rounded=0;html=1;" parent="27" vertex="1">
                    <mxGeometry y="84" width="240" height="78" as="geometry"/>
                </mxCell>
                <mxCell id="31" value="&amp;laquo;@Controller&amp;raquo;&lt;br&gt;&lt;b&gt;UserController&lt;/b&gt;" style="swimlane;fontStyle=1;align=center;verticalAlign=top;childLayout=stackLayout;horizontal=1;startSize=30;fillColor=#ffffff;swimlaneFillColor=#ffffff;strokeColor=#000000;html=1;whiteSpace=wrap;" parent="26" vertex="1">
                    <mxGeometry x="20" y="252" width="274" height="188" as="geometry"/>
                </mxCell>
                <mxCell id="32" value="- userService: UserService" style="text;strokeColor=none;fillColor=none;align=left;verticalAlign=top;spacingLeft=4;spacingRight=4;overflow=hidden;rotatable=0;points=[[0,0.5],[1,0.5]];portConstraint=eastwest;whiteSpace=wrap;rounded=0;html=1;" parent="31" vertex="1">
                    <mxGeometry y="30" width="274" height="26" as="geometry"/>
                </mxCell>
                <mxCell id="33" value="- jwtUtil: JWTUtil" style="text;strokeColor=none;fillColor=none;align=left;verticalAlign=top;spacingLeft=4;spacingRight=4;overflow=hidden;rotatable=0;points=[[0,0.5],[1,0.5]];portConstraint=eastwest;whiteSpace=wrap;rounded=0;html=1;" parent="31" vertex="1">
                    <mxGeometry y="56" width="274" height="26" as="geometry"/>
                </mxCell>
                <mxCell id="34" value="" style="line;strokeColor=none;fillColor=none;align=left;verticalAlign=middle;spacingLeft=4;spacingRight=4;overflow=hidden;rotatable=0;points=[[0,0.5],[1,0.5]];portConstraint=eastwest;" parent="31" vertex="1">
                    <mxGeometry y="82" width="274" height="2" as="geometry"/>
                </mxCell>
                <mxCell id="35" value="+ getProfile(token: String): ResponseEntity&amp;lt;UserDTO&amp;gt;" style="text;strokeColor=none;fillColor=none;align=left;verticalAlign=top;spacingLeft=4;spacingRight=4;overflow=hidden;rotatable=0;points=[[0,0.5],[1,0.5]];portConstraint=eastwest;whiteSpace=wrap;rounded=0;html=1;" parent="31" vertex="1">
                    <mxGeometry y="84" width="274" height="52" as="geometry"/>
                </mxCell>
                <mxCell id="36" value="+ getUsers(page: Integer): ResponseEntity&amp;lt;AllUsersResponse&amp;gt;" style="text;strokeColor=none;fillColor=none;align=left;verticalAlign=top;spacingLeft=4;spacingRight=4;overflow=hidden;rotatable=0;points=[[0,0.5],[1,0.5]];portConstraint=eastwest;whiteSpace=wrap;rounded=0;html=1;" parent="31" vertex="1">
                    <mxGeometry y="136" width="274" height="52" as="geometry"/>
                </mxCell>
                <mxCell id="37" value="&amp;laquo;@Controller&amp;raquo;&lt;br&gt;&lt;b&gt;AuthenticationController&lt;/b&gt;" style="swimlane;fontStyle=1;align=center;verticalAlign=top;childLayout=stackLayout;horizontal=1;startSize=30;fillColor=#ffffff;swimlaneFillColor=#ffffff;strokeColor=#000000;html=1;whiteSpace=wrap;" parent="26" vertex="1">
                    <mxGeometry x="20" y="480" width="240" height="240" as="geometry"/>
                </mxCell>
                <mxCell id="38" value="- authenticationService: AuthenticationService" style="text;strokeColor=none;fillColor=none;align=left;verticalAlign=top;spacingLeft=4;spacingRight=4;overflow=hidden;rotatable=0;points=[[0,0.5],[1,0.5]];portConstraint=eastwest;whiteSpace=wrap;rounded=0;html=1;" parent="37" vertex="1">
                    <mxGeometry y="30" width="240" height="52" as="geometry"/>
                </mxCell>
                <mxCell id="39" value="" style="line;strokeColor=none;fillColor=none;align=left;verticalAlign=middle;spacingLeft=4;spacingRight=4;overflow=hidden;rotatable=0;points=[[0,0.5],[1,0.5]];portConstraint=eastwest;" parent="37" vertex="1">
                    <mxGeometry y="82" width="240" height="2" as="geometry"/>
                </mxCell>
                <mxCell id="40" value="+ signup(request: AuthenticationSignupRequest): ResponseEntity&amp;lt;?&amp;gt;" style="text;strokeColor=none;fillColor=none;align=left;verticalAlign=top;spacingLeft=4;spacingRight=4;overflow=hidden;rotatable=0;points=[[0,0.5],[1,0.5]];portConstraint=eastwest;whiteSpace=wrap;rounded=0;html=1;" parent="37" vertex="1">
                    <mxGeometry y="84" width="240" height="78" as="geometry"/>
                </mxCell>
                <mxCell id="41" value="+ signin(request: AuthenticationSigninRequest): ResponseEntity&amp;lt;?&amp;gt;" style="text;strokeColor=none;fillColor=none;align=left;verticalAlign=top;spacingLeft=4;spacingRight=4;overflow=hidden;rotatable=0;points=[[0,0.5],[1,0.5]];portConstraint=eastwest;whiteSpace=wrap;rounded=0;html=1;" parent="37" vertex="1">
                    <mxGeometry y="162" width="240" height="78" as="geometry"/>
                </mxCell>
                <mxCell id="42" value="&amp;laquo;@Controller&amp;raquo;&lt;br&gt;&lt;b&gt;ScrapeController&lt;/b&gt;" style="swimlane;fontStyle=1;align=center;verticalAlign=top;childLayout=stackLayout;horizontal=1;startSize=30;fillColor=#ffffff;swimlaneFillColor=#ffffff;strokeColor=#000000;html=1;whiteSpace=wrap;" parent="26" vertex="1">
                    <mxGeometry x="20" y="760" width="240" height="890" as="geometry"/>
                </mxCell>
                <mxCell id="43" value="- scrapeService: ScrapeService" style="text;strokeColor=none;fillColor=none;align=left;verticalAlign=top;spacingLeft=4;spacingRight=4;overflow=hidden;rotatable=0;points=[[0,0.5],[1,0.5]];portConstraint=eastwest;whiteSpace=wrap;rounded=0;html=1;" parent="42" vertex="1">
                    <mxGeometry y="30" width="240" height="26" as="geometry"/>
                </mxCell>
                <mxCell id="44" value="- scrape: PageScrape" style="text;strokeColor=none;fillColor=none;align=left;verticalAlign=top;spacingLeft=4;spacingRight=4;overflow=hidden;rotatable=0;points=[[0,0.5],[1,0.5]];portConstraint=eastwest;whiteSpace=wrap;rounded=0;html=1;" parent="42" vertex="1">
                    <mxGeometry y="56" width="240" height="26" as="geometry"/>
                </mxCell>
                <mxCell id="45" value="- apiCaller: ApiCaller" style="text;strokeColor=none;fillColor=none;align=left;verticalAlign=top;spacingLeft=4;spacingRight=4;overflow=hidden;rotatable=0;points=[[0,0.5],[1,0.5]];portConstraint=eastwest;whiteSpace=wrap;rounded=0;html=1;" parent="42" vertex="1">
                    <mxGeometry y="82" width="240" height="26" as="geometry"/>
                </mxCell>
                <mxCell id="46" value="- drawioGenerator: DrawioGenerator" style="text;strokeColor=none;fillColor=none;align=left;verticalAlign=top;spacingLeft=4;spacingRight=4;overflow=hidden;rotatable=0;points=[[0,0.5],[1,0.5]];portConstraint=eastwest;whiteSpace=wrap;rounded=0;html=1;" parent="42" vertex="1">
                    <mxGeometry y="108" width="240" height="52" as="geometry"/>
                </mxCell>
                <mxCell id="47" value="" style="line;strokeColor=none;fillColor=none;align=left;verticalAlign=middle;spacingLeft=4;spacingRight=4;overflow=hidden;rotatable=0;points=[[0,0.5],[1,0.5]];portConstraint=eastwest;" parent="42" vertex="1">
                    <mxGeometry y="160" width="240" height="2" as="geometry"/>
                </mxCell>
                <mxCell id="48" value="+ updateApiKey(id: UUID, request: ApiKeyRequest): ResponseEntity&amp;lt;?&amp;gt;" style="text;strokeColor=none;fillColor=none;align=left;verticalAlign=top;spacingLeft=4;spacingRight=4;overflow=hidden;rotatable=0;points=[[0,0.5],[1,0.5]];portConstraint=eastwest;whiteSpace=wrap;rounded=0;html=1;" parent="42" vertex="1">
                    <mxGeometry y="162" width="240" height="78" as="geometry"/>
                </mxCell>
                <mxCell id="49" value="+ getSearchQuerys(page: Integer): ResponseEntity&amp;lt;?&amp;gt;" style="text;strokeColor=none;fillColor=none;align=left;verticalAlign=top;spacingLeft=4;spacingRight=4;overflow=hidden;rotatable=0;points=[[0,0.5],[1,0.5]];portConstraint=eastwest;whiteSpace=wrap;rounded=0;html=1;" parent="42" vertex="1">
                    <mxGeometry y="240" width="240" height="52" as="geometry"/>
                </mxCell>
                <mxCell id="50" value="+ updateSearchQuery(id: UUID, searchQuery: SearchQuery): ResponseEntity&amp;lt;?&amp;gt;" style="text;strokeColor=none;fillColor=none;align=left;verticalAlign=top;spacingLeft=4;spacingRight=4;overflow=hidden;rotatable=0;points=[[0,0.5],[1,0.5]];portConstraint=eastwest;whiteSpace=wrap;rounded=0;html=1;" parent="42" vertex="1">
                    <mxGeometry y="292" width="240" height="78" as="geometry"/>
                </mxCell>
                <mxCell id="51" value="+ getSearchQuery(id: UUID): ResponseEntity&amp;lt;?&amp;gt;" style="text;strokeColor=none;fillColor=none;align=left;verticalAlign=top;spacingLeft=4;spacingRight=4;overflow=hidden;rotatable=0;points=[[0,0.5],[1,0.5]];portConstraint=eastwest;whiteSpace=wrap;rounded=0;html=1;" parent="42" vertex="1">
                    <mxGeometry y="370" width="240" height="52" as="geometry"/>
                </mxCell>
                <mxCell id="52" value="+ createApiKey(request: ApiKeyRequest): ResponseEntity&amp;lt;?&amp;gt;" style="text;strokeColor=none;fillColor=none;align=left;verticalAlign=top;spacingLeft=4;spacingRight=4;overflow=hidden;rotatable=0;points=[[0,0.5],[1,0.5]];portConstraint=eastwest;whiteSpace=wrap;rounded=0;html=1;" parent="42" vertex="1">
                    <mxGeometry y="422" width="240" height="78" as="geometry"/>
                </mxCell>
                <mxCell id="53" value="+ deleteSearchQuery(id: UUID): ResponseEntity&amp;lt;?&amp;gt;" style="text;strokeColor=none;fillColor=none;align=left;verticalAlign=top;spacingLeft=4;spacingRight=4;overflow=hidden;rotatable=0;points=[[0,0.5],[1,0.5]];portConstraint=eastwest;whiteSpace=wrap;rounded=0;html=1;" parent="42" vertex="1">
                    <mxGeometry y="500" width="240" height="52" as="geometry"/>
                </mxCell>
                <mxCell id="54" value="+ startSearch(): void" style="text;strokeColor=none;fillColor=none;align=left;verticalAlign=top;spacingLeft=4;spacingRight=4;overflow=hidden;rotatable=0;points=[[0,0.5],[1,0.5]];portConstraint=eastwest;whiteSpace=wrap;rounded=0;html=1;" parent="42" vertex="1">
                    <mxGeometry y="552" width="240" height="26" as="geometry"/>
                </mxCell>
                <mxCell id="55" value="+ deleteApiKey(id: UUID): ResponseEntity&amp;lt;?&amp;gt;" style="text;strokeColor=none;fillColor=none;align=left;verticalAlign=top;spacingLeft=4;spacingRight=4;overflow=hidden;rotatable=0;points=[[0,0.5],[1,0.5]];portConstraint=eastwest;whiteSpace=wrap;rounded=0;html=1;" parent="42" vertex="1">
                    <mxGeometry y="578" width="240" height="52" as="geometry"/>
                </mxCell>
                <mxCell id="56" value="+ startDrawing(): void" style="text;strokeColor=none;fillColor=none;align=left;verticalAlign=top;spacingLeft=4;spacingRight=4;overflow=hidden;rotatable=0;points=[[0,0.5],[1,0.5]];portConstraint=eastwest;whiteSpace=wrap;rounded=0;html=1;" parent="42" vertex="1">
                    <mxGeometry y="630" width="240" height="26" as="geometry"/>
                </mxCell>
                <mxCell id="57" value="+ startScrapping(entity: String): void" style="text;strokeColor=none;fillColor=none;align=left;verticalAlign=top;spacingLeft=4;spacingRight=4;overflow=hidden;rotatable=0;points=[[0,0.5],[1,0.5]];portConstraint=eastwest;whiteSpace=wrap;rounded=0;html=1;" parent="42" vertex="1">
                    <mxGeometry y="656" width="240" height="52" as="geometry"/>
                </mxCell>
                <mxCell id="58" value="+ createSearchQuery(searchQuery: SearchQuery): ResponseEntity&amp;lt;?&amp;gt;" style="text;strokeColor=none;fillColor=none;align=left;verticalAlign=top;spacingLeft=4;spacingRight=4;overflow=hidden;rotatable=0;points=[[0,0.5],[1,0.5]];portConstraint=eastwest;whiteSpace=wrap;rounded=0;html=1;" parent="42" vertex="1">
                    <mxGeometry y="708" width="240" height="78" as="geometry"/>
                </mxCell>
                <mxCell id="59" value="+ getApiKey(id: UUID): ResponseEntity&amp;lt;?&amp;gt;" style="text;strokeColor=none;fillColor=none;align=left;verticalAlign=top;spacingLeft=4;spacingRight=4;overflow=hidden;rotatable=0;points=[[0,0.5],[1,0.5]];portConstraint=eastwest;whiteSpace=wrap;rounded=0;html=1;" parent="42" vertex="1">
                    <mxGeometry y="786" width="240" height="52" as="geometry"/>
                </mxCell>
                <mxCell id="60" value="+ getApiKeys(page: Integer): ResponseEntity&amp;lt;?&amp;gt;" style="text;strokeColor=none;fillColor=none;align=left;verticalAlign=top;spacingLeft=4;spacingRight=4;overflow=hidden;rotatable=0;points=[[0,0.5],[1,0.5]];portConstraint=eastwest;whiteSpace=wrap;rounded=0;html=1;" parent="42" vertex="1">
                    <mxGeometry y="838" width="240" height="52" as="geometry"/>
                </mxCell>
                <mxCell id="61" value="exception" style="swimlane;html=1;startSize=30;horizontal=1;fillColor=none;swimlaneFillColor=none;collapsible=1;swimlaneLine=1;strokeColor=#000000;rounded=0;align=center;verticalAlign=top;fontStyle=1;whiteSpace=wrap;" parent="2" vertex="1">
                    <mxGeometry x="20" y="2738" width="300" height="1056" as="geometry"/>
                </mxCell>
                <mxCell id="62" value="&amp;laquo;@Component&amp;raquo;&lt;br&gt;&lt;b&gt;DelegatedAuthEntryPoint&lt;/b&gt;" style="swimlane;fontStyle=1;align=center;verticalAlign=top;childLayout=stackLayout;horizontal=1;startSize=30;fillColor=#ffffff;swimlaneFillColor=#ffffff;strokeColor=#000000;html=1;whiteSpace=wrap;" parent="61" vertex="1">
                    <mxGeometry x="20" y="50" width="240" height="214" as="geometry"/>
                </mxCell>
                <mxCell id="63" value="- handlerExceptionResolver: HandlerExceptionResolver" style="text;strokeColor=none;fillColor=none;align=left;verticalAlign=top;spacingLeft=4;spacingRight=4;overflow=hidden;rotatable=0;points=[[0,0.5],[1,0.5]];portConstraint=eastwest;whiteSpace=wrap;rounded=0;html=1;" parent="62" vertex="1">
                    <mxGeometry y="30" width="240" height="52" as="geometry"/>
                </mxCell>
                <mxCell id="64" value="" style="line;strokeColor=none;fillColor=none;align=left;verticalAlign=middle;spacingLeft=4;spacingRight=4;overflow=hidden;rotatable=0;points=[[0,0.5],[1,0.5]];portConstraint=eastwest;" parent="62" vertex="1">
                    <mxGeometry y="82" width="240" height="2" as="geometry"/>
                </mxCell>
                <mxCell id="65" value="+ commence(request: HttpServletRequest, response: HttpServletResponse, authException: AuthenticationException): void" style="text;strokeColor=none;fillColor=none;align=left;verticalAlign=top;spacingLeft=4;spacingRight=4;overflow=hidden;rotatable=0;points=[[0,0.5],[1,0.5]];portConstraint=eastwest;whiteSpace=wrap;rounded=0;html=1;" parent="62" vertex="1">
                    <mxGeometry y="84" width="240" height="130" as="geometry"/>
                </mxCell>
                <mxCell id="66" value="&amp;laquo;@Component&amp;raquo;&lt;br&gt;&lt;b&gt;DefaultExceptionHandler&lt;/b&gt;" style="swimlane;fontStyle=1;align=center;verticalAlign=top;childLayout=stackLayout;horizontal=1;startSize=30;fillColor=#ffffff;swimlaneFillColor=#ffffff;strokeColor=#000000;html=1;whiteSpace=wrap;" parent="61" vertex="1">
                    <mxGeometry x="20" y="304" width="260" height="732" as="geometry"/>
                </mxCell>
                <mxCell id="67" value="+ handleException(e: BadCredentialsException, request: HttpServletRequest): ResponseEntity&amp;lt;ApiError&amp;gt;" style="text;strokeColor=none;fillColor=none;align=left;verticalAlign=top;spacingLeft=4;spacingRight=4;overflow=hidden;rotatable=0;points=[[0,0.5],[1,0.5]];portConstraint=eastwest;whiteSpace=wrap;rounded=0;html=1;" parent="66" vertex="1">
                    <mxGeometry y="30" width="260" height="104" as="geometry"/>
                </mxCell>
                <mxCell id="68" value="+ handleException(e: Exception, request: HttpServletRequest): ResponseEntity&amp;lt;ApiError&amp;gt;" style="text;strokeColor=none;fillColor=none;align=left;verticalAlign=top;spacingLeft=4;spacingRight=4;overflow=hidden;rotatable=0;points=[[0,0.5],[1,0.5]];portConstraint=eastwest;whiteSpace=wrap;rounded=0;html=1;" parent="66" vertex="1">
                    <mxGeometry y="134" width="260" height="78" as="geometry"/>
                </mxCell>
                <mxCell id="69" value="+ handleException(e: AccessDeniedException, request: HttpServletRequest): ResponseEntity&amp;lt;ApiError&amp;gt;" style="text;strokeColor=none;fillColor=none;align=left;verticalAlign=top;spacingLeft=4;spacingRight=4;overflow=hidden;rotatable=0;points=[[0,0.5],[1,0.5]];portConstraint=eastwest;whiteSpace=wrap;rounded=0;html=1;" parent="66" vertex="1">
                    <mxGeometry y="212" width="260" height="104" as="geometry"/>
                </mxCell>
                <mxCell id="70" value="+ handleException(e: UsernameNotFoundException, request: HttpServletRequest): ResponseEntity&amp;lt;ApiError&amp;gt;" style="text;strokeColor=none;fillColor=none;align=left;verticalAlign=top;spacingLeft=4;spacingRight=4;overflow=hidden;rotatable=0;points=[[0,0.5],[1,0.5]];portConstraint=eastwest;whiteSpace=wrap;rounded=0;html=1;" parent="66" vertex="1">
                    <mxGeometry y="316" width="260" height="104" as="geometry"/>
                </mxCell>
                <mxCell id="71" value="+ handleException(e: DuplicateResourceExeption, request: HttpServletRequest): ResponseEntity&amp;lt;ApiError&amp;gt;" style="text;strokeColor=none;fillColor=none;align=left;verticalAlign=top;spacingLeft=4;spacingRight=4;overflow=hidden;rotatable=0;points=[[0,0.5],[1,0.5]];portConstraint=eastwest;whiteSpace=wrap;rounded=0;html=1;" parent="66" vertex="1">
                    <mxGeometry y="420" width="260" height="104" as="geometry"/>
                </mxCell>
                <mxCell id="72" value="+ handleException(e: ResourceNotFoundExeption, request: HttpServletRequest): ResponseEntity&amp;lt;ApiError&amp;gt;" style="text;strokeColor=none;fillColor=none;align=left;verticalAlign=top;spacingLeft=4;spacingRight=4;overflow=hidden;rotatable=0;points=[[0,0.5],[1,0.5]];portConstraint=eastwest;whiteSpace=wrap;rounded=0;html=1;" parent="66" vertex="1">
                    <mxGeometry y="524" width="260" height="104" as="geometry"/>
                </mxCell>
                <mxCell id="73" value="+ handleException(e: InsufficientAuthenticationException, request: HttpServletRequest): ResponseEntity&amp;lt;ApiError&amp;gt;" style="text;strokeColor=none;fillColor=none;align=left;verticalAlign=top;spacingLeft=4;spacingRight=4;overflow=hidden;rotatable=0;points=[[0,0.5],[1,0.5]];portConstraint=eastwest;whiteSpace=wrap;rounded=0;html=1;" parent="66" vertex="1">
                    <mxGeometry y="628" width="260" height="104" as="geometry"/>
                </mxCell>
                <mxCell id="74" value="jwt" style="swimlane;html=1;startSize=30;horizontal=1;fillColor=none;swimlaneFillColor=none;collapsible=1;swimlaneLine=1;strokeColor=#000000;rounded=0;align=center;verticalAlign=top;fontStyle=1;whiteSpace=wrap;" parent="2" vertex="1">
                    <mxGeometry x="20" y="3834" width="280" height="1058" as="geometry"/>
                </mxCell>
                <mxCell id="75" value="&amp;laquo;@Component&amp;raquo;&lt;br&gt;&lt;b&gt;JWTAuthenticationFilter&lt;/b&gt;" style="swimlane;fontStyle=1;align=center;verticalAlign=top;childLayout=stackLayout;horizontal=1;startSize=30;fillColor=#ffffff;swimlaneFillColor=#ffffff;strokeColor=#000000;html=1;whiteSpace=wrap;" parent="74" vertex="1">
                    <mxGeometry x="20" y="50" width="240" height="214" as="geometry"/>
                </mxCell>
                <mxCell id="76" value="- jwtUtil: JWTUtil" style="text;strokeColor=none;fillColor=none;align=left;verticalAlign=top;spacingLeft=4;spacingRight=4;overflow=hidden;rotatable=0;points=[[0,0.5],[1,0.5]];portConstraint=eastwest;whiteSpace=wrap;rounded=0;html=1;" parent="75" vertex="1">
                    <mxGeometry y="30" width="240" height="26" as="geometry"/>
                </mxCell>
                <mxCell id="77" value="- userDetailsService: UserDetailsService" style="text;strokeColor=none;fillColor=none;align=left;verticalAlign=top;spacingLeft=4;spacingRight=4;overflow=hidden;rotatable=0;points=[[0,0.5],[1,0.5]];portConstraint=eastwest;whiteSpace=wrap;rounded=0;html=1;" parent="75" vertex="1">
                    <mxGeometry y="56" width="240" height="52" as="geometry"/>
                </mxCell>
                <mxCell id="78" value="" style="line;strokeColor=none;fillColor=none;align=left;verticalAlign=middle;spacingLeft=4;spacingRight=4;overflow=hidden;rotatable=0;points=[[0,0.5],[1,0.5]];portConstraint=eastwest;" parent="75" vertex="1">
                    <mxGeometry y="108" width="240" height="2" as="geometry"/>
                </mxCell>
                <mxCell id="79" value="# doFilterInternal(request: HttpServletRequest, response: HttpServletResponse, filterChain: FilterChain): void" style="text;strokeColor=none;fillColor=none;align=left;verticalAlign=top;spacingLeft=4;spacingRight=4;overflow=hidden;rotatable=0;points=[[0,0.5],[1,0.5]];portConstraint=eastwest;whiteSpace=wrap;rounded=0;html=1;" parent="75" vertex="1">
                    <mxGeometry y="110" width="240" height="104" as="geometry"/>
                </mxCell>
                <mxCell id="80" value="&amp;laquo;@Service&amp;raquo;&lt;br&gt;&lt;b&gt;JWTUtil&lt;/b&gt;" style="swimlane;fontStyle=1;align=center;verticalAlign=top;childLayout=stackLayout;horizontal=1;startSize=30;fillColor=#ffffff;swimlaneFillColor=#ffffff;strokeColor=#000000;html=1;whiteSpace=wrap;" parent="74" vertex="1">
                    <mxGeometry x="20" y="304" width="240" height="734" as="geometry"/>
                </mxCell>
                <mxCell id="81" value="- secretKey: String" style="text;strokeColor=none;fillColor=none;align=left;verticalAlign=top;spacingLeft=4;spacingRight=4;overflow=hidden;rotatable=0;points=[[0,0.5],[1,0.5]];portConstraint=eastwest;whiteSpace=wrap;rounded=0;html=1;" parent="80" vertex="1">
                    <mxGeometry y="30" width="240" height="26" as="geometry"/>
                </mxCell>
                <mxCell id="82" value="- jwtExpiration: long" style="text;strokeColor=none;fillColor=none;align=left;verticalAlign=top;spacingLeft=4;spacingRight=4;overflow=hidden;rotatable=0;points=[[0,0.5],[1,0.5]];portConstraint=eastwest;whiteSpace=wrap;rounded=0;html=1;" parent="80" vertex="1">
                    <mxGeometry y="56" width="240" height="26" as="geometry"/>
                </mxCell>
                <mxCell id="83" value="- issuer: String" style="text;strokeColor=none;fillColor=none;align=left;verticalAlign=top;spacingLeft=4;spacingRight=4;overflow=hidden;rotatable=0;points=[[0,0.5],[1,0.5]];portConstraint=eastwest;whiteSpace=wrap;rounded=0;html=1;" parent="80" vertex="1">
                    <mxGeometry y="82" width="240" height="26" as="geometry"/>
                </mxCell>
                <mxCell id="84" value="" style="line;strokeColor=none;fillColor=none;align=left;verticalAlign=middle;spacingLeft=4;spacingRight=4;overflow=hidden;rotatable=0;points=[[0,0.5],[1,0.5]];portConstraint=eastwest;" parent="80" vertex="1">
                    <mxGeometry y="108" width="240" height="2" as="geometry"/>
                </mxCell>
                <mxCell id="85" value="+ getSubject(token: String): String" style="text;strokeColor=none;fillColor=none;align=left;verticalAlign=top;spacingLeft=4;spacingRight=4;overflow=hidden;rotatable=0;points=[[0,0.5],[1,0.5]];portConstraint=eastwest;whiteSpace=wrap;rounded=0;html=1;" parent="80" vertex="1">
                    <mxGeometry y="110" width="240" height="52" as="geometry"/>
                </mxCell>
                <mxCell id="86" value="+ issueToken(subject: String, claims: Map&amp;lt;String, Object&amp;gt;): String" style="text;strokeColor=none;fillColor=none;align=left;verticalAlign=top;spacingLeft=4;spacingRight=4;overflow=hidden;rotatable=0;points=[[0,0.5],[1,0.5]];portConstraint=eastwest;whiteSpace=wrap;rounded=0;html=1;" parent="80" vertex="1">
                    <mxGeometry y="162" width="240" height="78" as="geometry"/>
                </mxCell>
                <mxCell id="87" value="+ issueToken(subject: String, scopes: List&amp;lt;String&amp;gt;): String" style="text;strokeColor=none;fillColor=none;align=left;verticalAlign=top;spacingLeft=4;spacingRight=4;overflow=hidden;rotatable=0;points=[[0,0.5],[1,0.5]];portConstraint=eastwest;whiteSpace=wrap;rounded=0;html=1;" parent="80" vertex="1">
                    <mxGeometry y="240" width="240" height="78" as="geometry"/>
                </mxCell>
                <mxCell id="88" value="+ issueToken(subject: String, scopes: String[]): String" style="text;strokeColor=none;fillColor=none;align=left;verticalAlign=top;spacingLeft=4;spacingRight=4;overflow=hidden;rotatable=0;points=[[0,0.5],[1,0.5]];portConstraint=eastwest;whiteSpace=wrap;rounded=0;html=1;" parent="80" vertex="1">
                    <mxGeometry y="318" width="240" height="52" as="geometry"/>
                </mxCell>
                <mxCell id="89" value="+ issueToken(subject: String): String" style="text;strokeColor=none;fillColor=none;align=left;verticalAlign=top;spacingLeft=4;spacingRight=4;overflow=hidden;rotatable=0;points=[[0,0.5],[1,0.5]];portConstraint=eastwest;whiteSpace=wrap;rounded=0;html=1;" parent="80" vertex="1">
                    <mxGeometry y="370" width="240" height="52" as="geometry"/>
                </mxCell>
                <mxCell id="90" value="- getClaims(token: String): Claims" style="text;strokeColor=none;fillColor=none;align=left;verticalAlign=top;spacingLeft=4;spacingRight=4;overflow=hidden;rotatable=0;points=[[0,0.5],[1,0.5]];portConstraint=eastwest;whiteSpace=wrap;rounded=0;html=1;" parent="80" vertex="1">
                    <mxGeometry y="422" width="240" height="52" as="geometry"/>
                </mxCell>
                <mxCell id="91" value="+ isTokenValid(token: String, userDetails: UserDetails): boolean" style="text;strokeColor=none;fillColor=none;align=left;verticalAlign=top;spacingLeft=4;spacingRight=4;overflow=hidden;rotatable=0;points=[[0,0.5],[1,0.5]];portConstraint=eastwest;whiteSpace=wrap;rounded=0;html=1;" parent="80" vertex="1">
                    <mxGeometry y="474" width="240" height="78" as="geometry"/>
                </mxCell>
                <mxCell id="92" value="- getSignInKey(): Key" style="text;strokeColor=none;fillColor=none;align=left;verticalAlign=top;spacingLeft=4;spacingRight=4;overflow=hidden;rotatable=0;points=[[0,0.5],[1,0.5]];portConstraint=eastwest;whiteSpace=wrap;rounded=0;html=1;" parent="80" vertex="1">
                    <mxGeometry y="552" width="240" height="26" as="geometry"/>
                </mxCell>
                <mxCell id="93" value="- extractExpiration(token: String): Date" style="text;strokeColor=none;fillColor=none;align=left;verticalAlign=top;spacingLeft=4;spacingRight=4;overflow=hidden;rotatable=0;points=[[0,0.5],[1,0.5]];portConstraint=eastwest;whiteSpace=wrap;rounded=0;html=1;" parent="80" vertex="1">
                    <mxGeometry y="578" width="240" height="52" as="geometry"/>
                </mxCell>
                <mxCell id="94" value="+ getExpirationDate(token: String): long" style="text;strokeColor=none;fillColor=none;align=left;verticalAlign=top;spacingLeft=4;spacingRight=4;overflow=hidden;rotatable=0;points=[[0,0.5],[1,0.5]];portConstraint=eastwest;whiteSpace=wrap;rounded=0;html=1;" parent="80" vertex="1">
                    <mxGeometry y="630" width="240" height="52" as="geometry"/>
                </mxCell>
                <mxCell id="95" value="- isTokenExpired(token: String): boolean" style="text;strokeColor=none;fillColor=none;align=left;verticalAlign=top;spacingLeft=4;spacingRight=4;overflow=hidden;rotatable=0;points=[[0,0.5],[1,0.5]];portConstraint=eastwest;whiteSpace=wrap;rounded=0;html=1;" parent="80" vertex="1">
                    <mxGeometry y="682" width="240" height="52" as="geometry"/>
                </mxCell>
                <mxCell id="96" value="mappers" style="swimlane;html=1;startSize=30;horizontal=1;fillColor=none;swimlaneFillColor=none;collapsible=1;swimlaneLine=1;strokeColor=#000000;rounded=0;align=center;verticalAlign=top;fontStyle=1;whiteSpace=wrap;" parent="2" vertex="1">
                    <mxGeometry x="20" y="4932" width="280" height="152" as="geometry"/>
                </mxCell>
                <mxCell id="97" value="&amp;laquo;@Service&amp;raquo;&lt;br&gt;&lt;b&gt;UserDTOMapper&lt;/b&gt;" style="swimlane;fontStyle=1;align=center;verticalAlign=top;childLayout=stackLayout;horizontal=1;startSize=30;fillColor=#ffffff;swimlaneFillColor=#ffffff;strokeColor=#000000;html=1;whiteSpace=wrap;" parent="96" vertex="1">
                    <mxGeometry x="20" y="50" width="240" height="82" as="geometry"/>
                </mxCell>
                <mxCell id="98" value="+ apply(user: User): UserDTO" style="text;strokeColor=none;fillColor=none;align=left;verticalAlign=top;spacingLeft=4;spacingRight=4;overflow=hidden;rotatable=0;points=[[0,0.5],[1,0.5]];portConstraint=eastwest;whiteSpace=wrap;rounded=0;html=1;" parent="97" vertex="1">
                    <mxGeometry y="30" width="240" height="26" as="geometry"/>
                </mxCell>
                <mxCell id="99" value="+ apply(arg0: Object): Object" style="text;strokeColor=none;fillColor=none;align=left;verticalAlign=top;spacingLeft=4;spacingRight=4;overflow=hidden;rotatable=0;points=[[0,0.5],[1,0.5]];portConstraint=eastwest;whiteSpace=wrap;rounded=0;html=1;" parent="97" vertex="1">
                    <mxGeometry y="56" width="240" height="26" as="geometry"/>
                </mxCell>
                <mxCell id="100" value="properties" style="swimlane;html=1;startSize=30;horizontal=1;fillColor=none;swimlaneFillColor=none;collapsible=1;swimlaneLine=1;strokeColor=#000000;rounded=0;align=center;verticalAlign=top;fontStyle=1;whiteSpace=wrap;" parent="2" vertex="1">
                    <mxGeometry x="20" y="5124" width="280" height="986" as="geometry"/>
                </mxCell>
                <mxCell id="101" value="&amp;laquo;@Component&amp;raquo;&lt;br&gt;&lt;b&gt;WebProperties$$SpringCGLIB$$0&lt;/b&gt;" style="swimlane;fontStyle=1;align=center;verticalAlign=top;childLayout=stackLayout;horizontal=1;startSize=30;fillColor=#ffffff;swimlaneFillColor=#ffffff;strokeColor=#000000;html=1;whiteSpace=wrap;" parent="100" vertex="1">
                    <mxGeometry x="20" y="50" width="240" height="916" as="geometry"/>
                </mxCell>
                <mxCell id="102" value="- CGLIB$BOUND: boolean" style="text;strokeColor=none;fillColor=none;align=left;verticalAlign=top;spacingLeft=4;spacingRight=4;overflow=hidden;rotatable=0;points=[[0,0.5],[1,0.5]];portConstraint=eastwest;whiteSpace=wrap;rounded=0;html=1;" parent="101" vertex="1">
                    <mxGeometry y="30" width="240" height="26" as="geometry"/>
                </mxCell>
                <mxCell id="103" value="+ CGLIB$FACTORY_DATA: Object" style="text;strokeColor=none;fillColor=none;align=left;verticalAlign=top;spacingLeft=4;spacingRight=4;overflow=hidden;rotatable=0;points=[[0,0.5],[1,0.5]];portConstraint=eastwest;whiteSpace=wrap;rounded=0;html=1;" parent="101" vertex="1">
                    <mxGeometry y="56" width="240" height="26" as="geometry"/>
                </mxCell>
                <mxCell id="104" value="- CGLIB$THREAD_CALLBACKS: ThreadLocal" style="text;strokeColor=none;fillColor=none;align=left;verticalAlign=top;spacingLeft=4;spacingRight=4;overflow=hidden;rotatable=0;points=[[0,0.5],[1,0.5]];portConstraint=eastwest;whiteSpace=wrap;rounded=0;html=1;" parent="101" vertex="1">
                    <mxGeometry y="82" width="240" height="52" as="geometry"/>
                </mxCell>
                <mxCell id="105" value="- CGLIB$STATIC_CALLBACKS: Callback[]" style="text;strokeColor=none;fillColor=none;align=left;verticalAlign=top;spacingLeft=4;spacingRight=4;overflow=hidden;rotatable=0;points=[[0,0.5],[1,0.5]];portConstraint=eastwest;whiteSpace=wrap;rounded=0;html=1;" parent="101" vertex="1">
                    <mxGeometry y="134" width="240" height="52" as="geometry"/>
                </mxCell>
                <mxCell id="106" value="- CGLIB$CALLBACK_0: MethodInterceptor" style="text;strokeColor=none;fillColor=none;align=left;verticalAlign=top;spacingLeft=4;spacingRight=4;overflow=hidden;rotatable=0;points=[[0,0.5],[1,0.5]];portConstraint=eastwest;whiteSpace=wrap;rounded=0;html=1;" parent="101" vertex="1">
                    <mxGeometry y="186" width="240" height="52" as="geometry"/>
                </mxCell>
                <mxCell id="107" value="- CGLIB$CALLBACK_1: MethodInterceptor" style="text;strokeColor=none;fillColor=none;align=left;verticalAlign=top;spacingLeft=4;spacingRight=4;overflow=hidden;rotatable=0;points=[[0,0.5],[1,0.5]];portConstraint=eastwest;whiteSpace=wrap;rounded=0;html=1;" parent="101" vertex="1">
                    <mxGeometry y="238" width="240" height="52" as="geometry"/>
                </mxCell>
                <mxCell id="108" value="- CGLIB$CALLBACK_2: NoOp" style="text;strokeColor=none;fillColor=none;align=left;verticalAlign=top;spacingLeft=4;spacingRight=4;overflow=hidden;rotatable=0;points=[[0,0.5],[1,0.5]];portConstraint=eastwest;whiteSpace=wrap;rounded=0;html=1;" parent="101" vertex="1">
                    <mxGeometry y="290" width="240" height="26" as="geometry"/>
                </mxCell>
                <mxCell id="109" value="- CGLIB$CALLBACK_FILTER: Object" style="text;strokeColor=none;fillColor=none;align=left;verticalAlign=top;spacingLeft=4;spacingRight=4;overflow=hidden;rotatable=0;points=[[0,0.5],[1,0.5]];portConstraint=eastwest;whiteSpace=wrap;rounded=0;html=1;" parent="101" vertex="1">
                    <mxGeometry y="316" width="240" height="26" as="geometry"/>
                </mxCell>
                <mxCell id="110" value="- CGLIB$setBeanFactory$8$Method: Method" style="text;strokeColor=none;fillColor=none;align=left;verticalAlign=top;spacingLeft=4;spacingRight=4;overflow=hidden;rotatable=0;points=[[0,0.5],[1,0.5]];portConstraint=eastwest;whiteSpace=wrap;rounded=0;html=1;" parent="101" vertex="1">
                    <mxGeometry y="342" width="240" height="52" as="geometry"/>
                </mxCell>
                <mxCell id="111" value="- CGLIB$setBeanFactory$8$Proxy: MethodProxy" style="text;strokeColor=none;fillColor=none;align=left;verticalAlign=top;spacingLeft=4;spacingRight=4;overflow=hidden;rotatable=0;points=[[0,0.5],[1,0.5]];portConstraint=eastwest;whiteSpace=wrap;rounded=0;html=1;" parent="101" vertex="1">
                    <mxGeometry y="394" width="240" height="52" as="geometry"/>
                </mxCell>
                <mxCell id="112" value="- CGLIB$emptyArgs: Object[]" style="text;strokeColor=none;fillColor=none;align=left;verticalAlign=top;spacingLeft=4;spacingRight=4;overflow=hidden;rotatable=0;points=[[0,0.5],[1,0.5]];portConstraint=eastwest;whiteSpace=wrap;rounded=0;html=1;" parent="101" vertex="1">
                    <mxGeometry y="446" width="240" height="26" as="geometry"/>
                </mxCell>
                <mxCell id="113" value="+ $$beanFactory: BeanFactory" style="text;strokeColor=none;fillColor=none;align=left;verticalAlign=top;spacingLeft=4;spacingRight=4;overflow=hidden;rotatable=0;points=[[0,0.5],[1,0.5]];portConstraint=eastwest;whiteSpace=wrap;rounded=0;html=1;" parent="101" vertex="1">
                    <mxGeometry y="472" width="240" height="26" as="geometry"/>
                </mxCell>
                <mxCell id="114" value="" style="line;strokeColor=none;fillColor=none;align=left;verticalAlign=middle;spacingLeft=4;spacingRight=4;overflow=hidden;rotatable=0;points=[[0,0.5],[1,0.5]];portConstraint=eastwest;" parent="101" vertex="1">
                    <mxGeometry y="498" width="240" height="2" as="geometry"/>
                </mxCell>
                <mxCell id="115" value="+ setBeanFactory(arg0: BeanFactory): void" style="text;strokeColor=none;fillColor=none;align=left;verticalAlign=top;spacingLeft=4;spacingRight=4;overflow=hidden;rotatable=0;points=[[0,0.5],[1,0.5]];portConstraint=eastwest;whiteSpace=wrap;rounded=0;html=1;" parent="101" vertex="1">
                    <mxGeometry y="500" width="240" height="52" as="geometry"/>
                </mxCell>
                <mxCell id="116" value="~ CGLIB$STATICHOOK1(): void" style="text;strokeColor=none;fillColor=none;align=left;verticalAlign=top;spacingLeft=4;spacingRight=4;overflow=hidden;rotatable=0;points=[[0,0.5],[1,0.5]];portConstraint=eastwest;whiteSpace=wrap;rounded=0;html=1;" parent="101" vertex="1">
                    <mxGeometry y="552" width="240" height="26" as="geometry"/>
                </mxCell>
                <mxCell id="117" value="~ CGLIB$STATICHOOK2(): void" style="text;strokeColor=none;fillColor=none;align=left;verticalAlign=top;spacingLeft=4;spacingRight=4;overflow=hidden;rotatable=0;points=[[0,0.5],[1,0.5]];portConstraint=eastwest;whiteSpace=wrap;rounded=0;html=1;" parent="101" vertex="1">
                    <mxGeometry y="578" width="240" height="26" as="geometry"/>
                </mxCell>
                <mxCell id="118" value="+ CGLIB$SET_THREAD_CALLBACKS(arg0: Callback[]): void" style="text;strokeColor=none;fillColor=none;align=left;verticalAlign=top;spacingLeft=4;spacingRight=4;overflow=hidden;rotatable=0;points=[[0,0.5],[1,0.5]];portConstraint=eastwest;whiteSpace=wrap;rounded=0;html=1;" parent="101" vertex="1">
                    <mxGeometry y="604" width="240" height="78" as="geometry"/>
                </mxCell>
                <mxCell id="119" value="+ CGLIB$SET_STATIC_CALLBACKS(arg0: Callback[]): void" style="text;strokeColor=none;fillColor=none;align=left;verticalAlign=top;spacingLeft=4;spacingRight=4;overflow=hidden;rotatable=0;points=[[0,0.5],[1,0.5]];portConstraint=eastwest;whiteSpace=wrap;rounded=0;html=1;" parent="101" vertex="1">
                    <mxGeometry y="682" width="240" height="78" as="geometry"/>
                </mxCell>
                <mxCell id="120" value="+ CGLIB$findMethodProxy(arg0: Signature): MethodProxy" style="text;strokeColor=none;fillColor=none;align=left;verticalAlign=top;spacingLeft=4;spacingRight=4;overflow=hidden;rotatable=0;points=[[0,0.5],[1,0.5]];portConstraint=eastwest;whiteSpace=wrap;rounded=0;html=1;" parent="101" vertex="1">
                    <mxGeometry y="760" width="240" height="52" as="geometry"/>
                </mxCell>
                <mxCell id="121" value="~ CGLIB$setBeanFactory$8(arg0: BeanFactory): void" style="text;strokeColor=none;fillColor=none;align=left;verticalAlign=top;spacingLeft=4;spacingRight=4;overflow=hidden;rotatable=0;points=[[0,0.5],[1,0.5]];portConstraint=eastwest;whiteSpace=wrap;rounded=0;html=1;" parent="101" vertex="1">
                    <mxGeometry y="812" width="240" height="52" as="geometry"/>
                </mxCell>
                <mxCell id="122" value="- CGLIB$BIND_CALLBACKS(arg0: Object): void" style="text;strokeColor=none;fillColor=none;align=left;verticalAlign=top;spacingLeft=4;spacingRight=4;overflow=hidden;rotatable=0;points=[[0,0.5],[1,0.5]];portConstraint=eastwest;whiteSpace=wrap;rounded=0;html=1;" parent="101" vertex="1">
                    <mxGeometry y="864" width="240" height="52" as="geometry"/>
                </mxCell>
                <mxCell id="123" value="scrapper" style="swimlane;html=1;startSize=30;horizontal=1;fillColor=none;swimlaneFillColor=none;collapsible=1;swimlaneLine=1;strokeColor=#000000;rounded=0;align=center;verticalAlign=top;fontStyle=1;whiteSpace=wrap;" parent="2" vertex="1">
                    <mxGeometry x="20" y="6150" width="280" height="1846" as="geometry"/>
                </mxCell>
                <mxCell id="124" value="&amp;laquo;@Service&amp;raquo;&lt;br&gt;&lt;b&gt;LinkParser&lt;/b&gt;" style="swimlane;fontStyle=1;align=center;verticalAlign=top;childLayout=stackLayout;horizontal=1;startSize=30;fillColor=#ffffff;swimlaneFillColor=#ffffff;strokeColor=#000000;html=1;whiteSpace=wrap;" parent="123" vertex="1">
                    <mxGeometry x="20" y="50" width="240" height="188" as="geometry"/>
                </mxCell>
                <mxCell id="125" value="- log: Logger" style="text;strokeColor=none;fillColor=none;align=left;verticalAlign=top;spacingLeft=4;spacingRight=4;overflow=hidden;rotatable=0;points=[[0,0.5],[1,0.5]];portConstraint=eastwest;whiteSpace=wrap;rounded=0;html=1;" parent="124" vertex="1">
                    <mxGeometry y="30" width="240" height="26" as="geometry"/>
                </mxCell>
                <mxCell id="126" value="- objectMapper: ObjectMapper" style="text;strokeColor=none;fillColor=none;align=left;verticalAlign=top;spacingLeft=4;spacingRight=4;overflow=hidden;rotatable=0;points=[[0,0.5],[1,0.5]];portConstraint=eastwest;whiteSpace=wrap;rounded=0;html=1;" parent="124" vertex="1">
                    <mxGeometry y="56" width="240" height="26" as="geometry"/>
                </mxCell>
                <mxCell id="127" value="" style="line;strokeColor=none;fillColor=none;align=left;verticalAlign=middle;spacingLeft=4;spacingRight=4;overflow=hidden;rotatable=0;points=[[0,0.5],[1,0.5]];portConstraint=eastwest;" parent="124" vertex="1">
                    <mxGeometry y="82" width="240" height="2" as="geometry"/>
                </mxCell>
                <mxCell id="128" value="- getSafeText(node: JsonNode, field: String): String" style="text;strokeColor=none;fillColor=none;align=left;verticalAlign=top;spacingLeft=4;spacingRight=4;overflow=hidden;rotatable=0;points=[[0,0.5],[1,0.5]];portConstraint=eastwest;whiteSpace=wrap;rounded=0;html=1;" parent="124" vertex="1">
                    <mxGeometry y="84" width="240" height="52" as="geometry"/>
                </mxCell>
                <mxCell id="129" value="+ parse(jsonBody: String): List&amp;lt;LinkResult&amp;gt;" style="text;strokeColor=none;fillColor=none;align=left;verticalAlign=top;spacingLeft=4;spacingRight=4;overflow=hidden;rotatable=0;points=[[0,0.5],[1,0.5]];portConstraint=eastwest;whiteSpace=wrap;rounded=0;html=1;" parent="124" vertex="1">
                    <mxGeometry y="136" width="240" height="52" as="geometry"/>
                </mxCell>
                <mxCell id="130" value="&amp;laquo;@Service&amp;raquo;&lt;br&gt;&lt;b&gt;ApiCaller&lt;/b&gt;" style="swimlane;fontStyle=1;align=center;verticalAlign=top;childLayout=stackLayout;horizontal=1;startSize=30;fillColor=#ffffff;swimlaneFillColor=#ffffff;strokeColor=#000000;html=1;whiteSpace=wrap;" parent="123" vertex="1">
                    <mxGeometry x="20" y="278" width="240" height="292" as="geometry"/>
                </mxCell>
                <mxCell id="131" value="- logger: Logger" style="text;strokeColor=none;fillColor=none;align=left;verticalAlign=top;spacingLeft=4;spacingRight=4;overflow=hidden;rotatable=0;points=[[0,0.5],[1,0.5]];portConstraint=eastwest;whiteSpace=wrap;rounded=0;html=1;" parent="130" vertex="1">
                    <mxGeometry y="30" width="240" height="26" as="geometry"/>
                </mxCell>
                <mxCell id="132" value="- apiKeyRepository: ApiKeyRepository" style="text;strokeColor=none;fillColor=none;align=left;verticalAlign=top;spacingLeft=4;spacingRight=4;overflow=hidden;rotatable=0;points=[[0,0.5],[1,0.5]];portConstraint=eastwest;whiteSpace=wrap;rounded=0;html=1;" parent="130" vertex="1">
                    <mxGeometry y="56" width="240" height="52" as="geometry"/>
                </mxCell>
                <mxCell id="133" value="- scrapeService: ScrapeService" style="text;strokeColor=none;fillColor=none;align=left;verticalAlign=top;spacingLeft=4;spacingRight=4;overflow=hidden;rotatable=0;points=[[0,0.5],[1,0.5]];portConstraint=eastwest;whiteSpace=wrap;rounded=0;html=1;" parent="130" vertex="1">
                    <mxGeometry y="108" width="240" height="26" as="geometry"/>
                </mxCell>
                <mxCell id="134" value="- searchQueryRepository: SearchQueryRepository" style="text;strokeColor=none;fillColor=none;align=left;verticalAlign=top;spacingLeft=4;spacingRight=4;overflow=hidden;rotatable=0;points=[[0,0.5],[1,0.5]];portConstraint=eastwest;whiteSpace=wrap;rounded=0;html=1;" parent="130" vertex="1">
                    <mxGeometry y="134" width="240" height="52" as="geometry"/>
                </mxCell>
                <mxCell id="135" value="- webClient: WebClient" style="text;strokeColor=none;fillColor=none;align=left;verticalAlign=top;spacingLeft=4;spacingRight=4;overflow=hidden;rotatable=0;points=[[0,0.5],[1,0.5]];portConstraint=eastwest;whiteSpace=wrap;rounded=0;html=1;" parent="130" vertex="1">
                    <mxGeometry y="186" width="240" height="26" as="geometry"/>
                </mxCell>
                <mxCell id="136" value="" style="line;strokeColor=none;fillColor=none;align=left;verticalAlign=middle;spacingLeft=4;spacingRight=4;overflow=hidden;rotatable=0;points=[[0,0.5],[1,0.5]];portConstraint=eastwest;" parent="130" vertex="1">
                    <mxGeometry y="212" width="240" height="2" as="geometry"/>
                </mxCell>
                <mxCell id="137" value="+ callGoogleSearch(): void" style="text;strokeColor=none;fillColor=none;align=left;verticalAlign=top;spacingLeft=4;spacingRight=4;overflow=hidden;rotatable=0;points=[[0,0.5],[1,0.5]];portConstraint=eastwest;whiteSpace=wrap;rounded=0;html=1;" parent="130" vertex="1">
                    <mxGeometry y="214" width="240" height="26" as="geometry"/>
                </mxCell>
                <mxCell id="138" value="- buildUri(sentence: String, index: int, key: ApiKey): String" style="text;strokeColor=none;fillColor=none;align=left;verticalAlign=top;spacingLeft=4;spacingRight=4;overflow=hidden;rotatable=0;points=[[0,0.5],[1,0.5]];portConstraint=eastwest;whiteSpace=wrap;rounded=0;html=1;" parent="130" vertex="1">
                    <mxGeometry y="240" width="240" height="52" as="geometry"/>
                </mxCell>
                <mxCell id="139" value="&amp;laquo;@Service&amp;raquo;&lt;br&gt;&lt;b&gt;FileManagement&lt;/b&gt;" style="swimlane;fontStyle=1;align=center;verticalAlign=top;childLayout=stackLayout;horizontal=1;startSize=30;fillColor=#ffffff;swimlaneFillColor=#ffffff;strokeColor=#000000;html=1;whiteSpace=wrap;" parent="123" vertex="1">
                    <mxGeometry x="20" y="610" width="240" height="552" as="geometry"/>
                </mxCell>
                <mxCell id="140" value="- logger: Logger" style="text;strokeColor=none;fillColor=none;align=left;verticalAlign=top;spacingLeft=4;spacingRight=4;overflow=hidden;rotatable=0;points=[[0,0.5],[1,0.5]];portConstraint=eastwest;whiteSpace=wrap;rounded=0;html=1;" parent="139" vertex="1">
                    <mxGeometry y="30" width="240" height="26" as="geometry"/>
                </mxCell>
                <mxCell id="141" value="- BASE_DIR: Path" style="text;strokeColor=none;fillColor=none;align=left;verticalAlign=top;spacingLeft=4;spacingRight=4;overflow=hidden;rotatable=0;points=[[0,0.5],[1,0.5]];portConstraint=eastwest;whiteSpace=wrap;rounded=0;html=1;" parent="139" vertex="1">
                    <mxGeometry y="56" width="240" height="26" as="geometry"/>
                </mxCell>
                <mxCell id="142" value="" style="line;strokeColor=none;fillColor=none;align=left;verticalAlign=middle;spacingLeft=4;spacingRight=4;overflow=hidden;rotatable=0;points=[[0,0.5],[1,0.5]];portConstraint=eastwest;" parent="139" vertex="1">
                    <mxGeometry y="82" width="240" height="2" as="geometry"/>
                </mxCell>
                <mxCell id="143" value="+ getFilePath(id: UUID, attemptNumber: int, fileName: String): Path" style="text;strokeColor=none;fillColor=none;align=left;verticalAlign=top;spacingLeft=4;spacingRight=4;overflow=hidden;rotatable=0;points=[[0,0.5],[1,0.5]];portConstraint=eastwest;whiteSpace=wrap;rounded=0;html=1;" parent="139" vertex="1">
                    <mxGeometry y="84" width="240" height="78" as="geometry"/>
                </mxCell>
                <mxCell id="144" value="+ ReadAFile(id: UUID, attemptNumber: int, fileName: String): void" style="text;strokeColor=none;fillColor=none;align=left;verticalAlign=top;spacingLeft=4;spacingRight=4;overflow=hidden;rotatable=0;points=[[0,0.5],[1,0.5]];portConstraint=eastwest;whiteSpace=wrap;rounded=0;html=1;" parent="139" vertex="1">
                    <mxGeometry y="162" width="240" height="78" as="geometry"/>
                </mxCell>
                <mxCell id="145" value="+ DeleteAFile(id: UUID, attemptNumber: int, fileName: String): void" style="text;strokeColor=none;fillColor=none;align=left;verticalAlign=top;spacingLeft=4;spacingRight=4;overflow=hidden;rotatable=0;points=[[0,0.5],[1,0.5]];portConstraint=eastwest;whiteSpace=wrap;rounded=0;html=1;" parent="139" vertex="1">
                    <mxGeometry y="240" width="240" height="78" as="geometry"/>
                </mxCell>
                <mxCell id="146" value="+ UpdateAFile(id: UUID, attemptNumber: int, fileName: String, newContent: String): void" style="text;strokeColor=none;fillColor=none;align=left;verticalAlign=top;spacingLeft=4;spacingRight=4;overflow=hidden;rotatable=0;points=[[0,0.5],[1,0.5]];portConstraint=eastwest;whiteSpace=wrap;rounded=0;html=1;" parent="139" vertex="1">
                    <mxGeometry y="318" width="240" height="78" as="geometry"/>
                </mxCell>
                <mxCell id="147" value="+ CreateAFile(id: UUID, attemptNumber: int, fileName: String, content: String): void" style="text;strokeColor=none;fillColor=none;align=left;verticalAlign=top;spacingLeft=4;spacingRight=4;overflow=hidden;rotatable=0;points=[[0,0.5],[1,0.5]];portConstraint=eastwest;whiteSpace=wrap;rounded=0;html=1;" parent="139" vertex="1">
                    <mxGeometry y="396" width="240" height="78" as="geometry"/>
                </mxCell>
                <mxCell id="148" value="- buildFilePath(id: UUID, attemptNumber: int, fileName: String): Path" style="text;strokeColor=none;fillColor=none;align=left;verticalAlign=top;spacingLeft=4;spacingRight=4;overflow=hidden;rotatable=0;points=[[0,0.5],[1,0.5]];portConstraint=eastwest;whiteSpace=wrap;rounded=0;html=1;" parent="139" vertex="1">
                    <mxGeometry y="474" width="240" height="78" as="geometry"/>
                </mxCell>
                <mxCell id="149" value="&amp;laquo;@Service&amp;raquo;&lt;br&gt;&lt;b&gt;PageScrape&lt;/b&gt;" style="swimlane;fontStyle=1;align=center;verticalAlign=top;childLayout=stackLayout;horizontal=1;startSize=30;fillColor=#ffffff;swimlaneFillColor=#ffffff;strokeColor=#000000;html=1;whiteSpace=wrap;" parent="123" vertex="1">
                    <mxGeometry x="20" y="1202" width="240" height="292" as="geometry"/>
                </mxCell>
                <mxCell id="150" value="~ webProperties: WebProperties" style="text;strokeColor=none;fillColor=none;align=left;verticalAlign=top;spacingLeft=4;spacingRight=4;overflow=hidden;rotatable=0;points=[[0,0.5],[1,0.5]];portConstraint=eastwest;whiteSpace=wrap;rounded=0;html=1;" parent="149" vertex="1">
                    <mxGeometry y="30" width="240" height="26" as="geometry"/>
                </mxCell>
                <mxCell id="151" value="- driverLocation: String" style="text;strokeColor=none;fillColor=none;align=left;verticalAlign=top;spacingLeft=4;spacingRight=4;overflow=hidden;rotatable=0;points=[[0,0.5],[1,0.5]];portConstraint=eastwest;whiteSpace=wrap;rounded=0;html=1;" parent="149" vertex="1">
                    <mxGeometry y="56" width="240" height="26" as="geometry"/>
                </mxCell>
                <mxCell id="152" value="- chromeLocation: String" style="text;strokeColor=none;fillColor=none;align=left;verticalAlign=top;spacingLeft=4;spacingRight=4;overflow=hidden;rotatable=0;points=[[0,0.5],[1,0.5]];portConstraint=eastwest;whiteSpace=wrap;rounded=0;html=1;" parent="149" vertex="1">
                    <mxGeometry y="82" width="240" height="26" as="geometry"/>
                </mxCell>
                <mxCell id="153" value="- scrapeJobRepository: ScrapeJobRepository" style="text;strokeColor=none;fillColor=none;align=left;verticalAlign=top;spacingLeft=4;spacingRight=4;overflow=hidden;rotatable=0;points=[[0,0.5],[1,0.5]];portConstraint=eastwest;whiteSpace=wrap;rounded=0;html=1;" parent="149" vertex="1">
                    <mxGeometry y="108" width="240" height="52" as="geometry"/>
                </mxCell>
                <mxCell id="154" value="- scrapeService: ScrapeService" style="text;strokeColor=none;fillColor=none;align=left;verticalAlign=top;spacingLeft=4;spacingRight=4;overflow=hidden;rotatable=0;points=[[0,0.5],[1,0.5]];portConstraint=eastwest;whiteSpace=wrap;rounded=0;html=1;" parent="149" vertex="1">
                    <mxGeometry y="160" width="240" height="26" as="geometry"/>
                </mxCell>
                <mxCell id="155" value="" style="line;strokeColor=none;fillColor=none;align=left;verticalAlign=middle;spacingLeft=4;spacingRight=4;overflow=hidden;rotatable=0;points=[[0,0.5],[1,0.5]];portConstraint=eastwest;" parent="149" vertex="1">
                    <mxGeometry y="186" width="240" height="2" as="geometry"/>
                </mxCell>
                <mxCell id="156" value="+ webGet(): void" style="text;strokeColor=none;fillColor=none;align=left;verticalAlign=top;spacingLeft=4;spacingRight=4;overflow=hidden;rotatable=0;points=[[0,0.5],[1,0.5]];portConstraint=eastwest;whiteSpace=wrap;rounded=0;html=1;" parent="149" vertex="1">
                    <mxGeometry y="188" width="240" height="26" as="geometry"/>
                </mxCell>
                <mxCell id="157" value="+ getDataCount(): int" style="text;strokeColor=none;fillColor=none;align=left;verticalAlign=top;spacingLeft=4;spacingRight=4;overflow=hidden;rotatable=0;points=[[0,0.5],[1,0.5]];portConstraint=eastwest;whiteSpace=wrap;rounded=0;html=1;" parent="149" vertex="1">
                    <mxGeometry y="214" width="240" height="26" as="geometry"/>
                </mxCell>
                <mxCell id="158" value="- instantiateDriver(headless: boolean): ChromeDriver" style="text;strokeColor=none;fillColor=none;align=left;verticalAlign=top;spacingLeft=4;spacingRight=4;overflow=hidden;rotatable=0;points=[[0,0.5],[1,0.5]];portConstraint=eastwest;whiteSpace=wrap;rounded=0;html=1;" parent="149" vertex="1">
                    <mxGeometry y="240" width="240" height="52" as="geometry"/>
                </mxCell>
                <mxCell id="159" value="&amp;laquo;@Service&amp;raquo;&lt;br&gt;&lt;b&gt;ScrapeStarterService&lt;/b&gt;" style="swimlane;fontStyle=1;align=center;verticalAlign=top;childLayout=stackLayout;horizontal=1;startSize=30;fillColor=#ffffff;swimlaneFillColor=#ffffff;strokeColor=#000000;html=1;whiteSpace=wrap;" parent="123" vertex="1">
                    <mxGeometry x="20" y="1534" width="240" height="292" as="geometry"/>
                </mxCell>
                <mxCell id="160" value="- logger: Logger" style="text;strokeColor=none;fillColor=none;align=left;verticalAlign=top;spacingLeft=4;spacingRight=4;overflow=hidden;rotatable=0;points=[[0,0.5],[1,0.5]];portConstraint=eastwest;whiteSpace=wrap;rounded=0;html=1;" parent="159" vertex="1">
                    <mxGeometry y="30" width="240" height="26" as="geometry"/>
                </mxCell>
                <mxCell id="161" value="- apiCaller: ApiCaller" style="text;strokeColor=none;fillColor=none;align=left;verticalAlign=top;spacingLeft=4;spacingRight=4;overflow=hidden;rotatable=0;points=[[0,0.5],[1,0.5]];portConstraint=eastwest;whiteSpace=wrap;rounded=0;html=1;" parent="159" vertex="1">
                    <mxGeometry y="56" width="240" height="26" as="geometry"/>
                </mxCell>
                <mxCell id="162" value="- scrapeService: ScrapeService" style="text;strokeColor=none;fillColor=none;align=left;verticalAlign=top;spacingLeft=4;spacingRight=4;overflow=hidden;rotatable=0;points=[[0,0.5],[1,0.5]];portConstraint=eastwest;whiteSpace=wrap;rounded=0;html=1;" parent="159" vertex="1">
                    <mxGeometry y="82" width="240" height="26" as="geometry"/>
                </mxCell>
                <mxCell id="163" value="- pageScrape: PageScrape" style="text;strokeColor=none;fillColor=none;align=left;verticalAlign=top;spacingLeft=4;spacingRight=4;overflow=hidden;rotatable=0;points=[[0,0.5],[1,0.5]];portConstraint=eastwest;whiteSpace=wrap;rounded=0;html=1;" parent="159" vertex="1">
                    <mxGeometry y="108" width="240" height="26" as="geometry"/>
                </mxCell>
                <mxCell id="164" value="- scrapeDataRepository: ScrapeDataRepository" style="text;strokeColor=none;fillColor=none;align=left;verticalAlign=top;spacingLeft=4;spacingRight=4;overflow=hidden;rotatable=0;points=[[0,0.5],[1,0.5]];portConstraint=eastwest;whiteSpace=wrap;rounded=0;html=1;" parent="159" vertex="1">
                    <mxGeometry y="134" width="240" height="52" as="geometry"/>
                </mxCell>
                <mxCell id="165" value="- fileManagement: FileManagement" style="text;strokeColor=none;fillColor=none;align=left;verticalAlign=top;spacingLeft=4;spacingRight=4;overflow=hidden;rotatable=0;points=[[0,0.5],[1,0.5]];portConstraint=eastwest;whiteSpace=wrap;rounded=0;html=1;" parent="159" vertex="1">
                    <mxGeometry y="186" width="240" height="26" as="geometry"/>
                </mxCell>
                <mxCell id="166" value="" style="line;strokeColor=none;fillColor=none;align=left;verticalAlign=middle;spacingLeft=4;spacingRight=4;overflow=hidden;rotatable=0;points=[[0,0.5],[1,0.5]];portConstraint=eastwest;" parent="159" vertex="1">
                    <mxGeometry y="212" width="240" height="2" as="geometry"/>
                </mxCell>
                <mxCell id="167" value="+ processUnparsedFiles(): void" style="text;strokeColor=none;fillColor=none;align=left;verticalAlign=top;spacingLeft=4;spacingRight=4;overflow=hidden;rotatable=0;points=[[0,0.5],[1,0.5]];portConstraint=eastwest;whiteSpace=wrap;rounded=0;html=1;" parent="159" vertex="1">
                    <mxGeometry y="214" width="240" height="26" as="geometry"/>
                </mxCell>
                <mxCell id="168" value="+ pageSourceGrabber(): void" style="text;strokeColor=none;fillColor=none;align=left;verticalAlign=top;spacingLeft=4;spacingRight=4;overflow=hidden;rotatable=0;points=[[0,0.5],[1,0.5]];portConstraint=eastwest;whiteSpace=wrap;rounded=0;html=1;" parent="159" vertex="1">
                    <mxGeometry y="240" width="240" height="26" as="geometry"/>
                </mxCell>
                <mxCell id="169" value="+ linkGrabber(): void" style="text;strokeColor=none;fillColor=none;align=left;verticalAlign=top;spacingLeft=4;spacingRight=4;overflow=hidden;rotatable=0;points=[[0,0.5],[1,0.5]];portConstraint=eastwest;whiteSpace=wrap;rounded=0;html=1;" parent="159" vertex="1">
                    <mxGeometry y="266" width="240" height="26" as="geometry"/>
                </mxCell>
                <mxCell id="170" value="security" style="swimlane;html=1;startSize=30;horizontal=1;fillColor=none;swimlaneFillColor=none;collapsible=1;swimlaneLine=1;strokeColor=#000000;rounded=0;align=center;verticalAlign=top;fontStyle=1;whiteSpace=wrap;" parent="2" vertex="1">
                    <mxGeometry x="20" y="8036" width="321" height="3860" as="geometry"/>
                </mxCell>
                <mxCell id="171" value="&amp;laquo;@Component&amp;raquo;&lt;br&gt;&lt;b&gt;SecurityFilterChainConfig$$SpringCGLIB$$0&lt;/b&gt;" style="swimlane;fontStyle=1;align=center;verticalAlign=top;childLayout=stackLayout;horizontal=1;startSize=30;fillColor=#ffffff;swimlaneFillColor=#ffffff;strokeColor=#000000;html=1;whiteSpace=wrap;" parent="170" vertex="1">
                    <mxGeometry x="20" y="50" width="253" height="1124" as="geometry"/>
                </mxCell>
                <mxCell id="172" value="- CGLIB$BOUND: boolean" style="text;strokeColor=none;fillColor=none;align=left;verticalAlign=top;spacingLeft=4;spacingRight=4;overflow=hidden;rotatable=0;points=[[0,0.5],[1,0.5]];portConstraint=eastwest;whiteSpace=wrap;rounded=0;html=1;" parent="171" vertex="1">
                    <mxGeometry y="30" width="253" height="26" as="geometry"/>
                </mxCell>
                <mxCell id="173" value="+ CGLIB$FACTORY_DATA: Object" style="text;strokeColor=none;fillColor=none;align=left;verticalAlign=top;spacingLeft=4;spacingRight=4;overflow=hidden;rotatable=0;points=[[0,0.5],[1,0.5]];portConstraint=eastwest;whiteSpace=wrap;rounded=0;html=1;" parent="171" vertex="1">
                    <mxGeometry y="56" width="253" height="26" as="geometry"/>
                </mxCell>
                <mxCell id="174" value="- CGLIB$THREAD_CALLBACKS: ThreadLocal" style="text;strokeColor=none;fillColor=none;align=left;verticalAlign=top;spacingLeft=4;spacingRight=4;overflow=hidden;rotatable=0;points=[[0,0.5],[1,0.5]];portConstraint=eastwest;whiteSpace=wrap;rounded=0;html=1;" parent="171" vertex="1">
                    <mxGeometry y="82" width="253" height="52" as="geometry"/>
                </mxCell>
                <mxCell id="175" value="- CGLIB$STATIC_CALLBACKS: Callback[]" style="text;strokeColor=none;fillColor=none;align=left;verticalAlign=top;spacingLeft=4;spacingRight=4;overflow=hidden;rotatable=0;points=[[0,0.5],[1,0.5]];portConstraint=eastwest;whiteSpace=wrap;rounded=0;html=1;" parent="171" vertex="1">
                    <mxGeometry y="134" width="253" height="52" as="geometry"/>
                </mxCell>
                <mxCell id="176" value="- CGLIB$CALLBACK_0: MethodInterceptor" style="text;strokeColor=none;fillColor=none;align=left;verticalAlign=top;spacingLeft=4;spacingRight=4;overflow=hidden;rotatable=0;points=[[0,0.5],[1,0.5]];portConstraint=eastwest;whiteSpace=wrap;rounded=0;html=1;" parent="171" vertex="1">
                    <mxGeometry y="186" width="253" height="52" as="geometry"/>
                </mxCell>
                <mxCell id="177" value="- CGLIB$CALLBACK_1: MethodInterceptor" style="text;strokeColor=none;fillColor=none;align=left;verticalAlign=top;spacingLeft=4;spacingRight=4;overflow=hidden;rotatable=0;points=[[0,0.5],[1,0.5]];portConstraint=eastwest;whiteSpace=wrap;rounded=0;html=1;" parent="171" vertex="1">
                    <mxGeometry y="238" width="253" height="52" as="geometry"/>
                </mxCell>
                <mxCell id="178" value="- CGLIB$CALLBACK_2: NoOp" style="text;strokeColor=none;fillColor=none;align=left;verticalAlign=top;spacingLeft=4;spacingRight=4;overflow=hidden;rotatable=0;points=[[0,0.5],[1,0.5]];portConstraint=eastwest;whiteSpace=wrap;rounded=0;html=1;" parent="171" vertex="1">
                    <mxGeometry y="290" width="253" height="26" as="geometry"/>
                </mxCell>
                <mxCell id="179" value="- CGLIB$CALLBACK_FILTER: Object" style="text;strokeColor=none;fillColor=none;align=left;verticalAlign=top;spacingLeft=4;spacingRight=4;overflow=hidden;rotatable=0;points=[[0,0.5],[1,0.5]];portConstraint=eastwest;whiteSpace=wrap;rounded=0;html=1;" parent="171" vertex="1">
                    <mxGeometry y="316" width="253" height="26" as="geometry"/>
                </mxCell>
                <mxCell id="180" value="- CGLIB$securityFilterChain$0$Method: Method" style="text;strokeColor=none;fillColor=none;align=left;verticalAlign=top;spacingLeft=4;spacingRight=4;overflow=hidden;rotatable=0;points=[[0,0.5],[1,0.5]];portConstraint=eastwest;whiteSpace=wrap;rounded=0;html=1;" parent="171" vertex="1">
                    <mxGeometry y="342" width="253" height="78" as="geometry"/>
                </mxCell>
                <mxCell id="181" value="- CGLIB$securityFilterChain$0$Proxy: MethodProxy" style="text;strokeColor=none;fillColor=none;align=left;verticalAlign=top;spacingLeft=4;spacingRight=4;overflow=hidden;rotatable=0;points=[[0,0.5],[1,0.5]];portConstraint=eastwest;whiteSpace=wrap;rounded=0;html=1;" parent="171" vertex="1">
                    <mxGeometry y="420" width="253" height="78" as="geometry"/>
                </mxCell>
                <mxCell id="182" value="- CGLIB$emptyArgs: Object[]" style="text;strokeColor=none;fillColor=none;align=left;verticalAlign=top;spacingLeft=4;spacingRight=4;overflow=hidden;rotatable=0;points=[[0,0.5],[1,0.5]];portConstraint=eastwest;whiteSpace=wrap;rounded=0;html=1;" parent="171" vertex="1">
                    <mxGeometry y="498" width="253" height="26" as="geometry"/>
                </mxCell>
                <mxCell id="183" value="- CGLIB$setBeanFactory$5$Method: Method" style="text;strokeColor=none;fillColor=none;align=left;verticalAlign=top;spacingLeft=4;spacingRight=4;overflow=hidden;rotatable=0;points=[[0,0.5],[1,0.5]];portConstraint=eastwest;whiteSpace=wrap;rounded=0;html=1;" parent="171" vertex="1">
                    <mxGeometry y="524" width="253" height="52" as="geometry"/>
                </mxCell>
                <mxCell id="184" value="- CGLIB$setBeanFactory$5$Proxy: MethodProxy" style="text;strokeColor=none;fillColor=none;align=left;verticalAlign=top;spacingLeft=4;spacingRight=4;overflow=hidden;rotatable=0;points=[[0,0.5],[1,0.5]];portConstraint=eastwest;whiteSpace=wrap;rounded=0;html=1;" parent="171" vertex="1">
                    <mxGeometry y="576" width="253" height="52" as="geometry"/>
                </mxCell>
                <mxCell id="185" value="+ $$beanFactory: BeanFactory" style="text;strokeColor=none;fillColor=none;align=left;verticalAlign=top;spacingLeft=4;spacingRight=4;overflow=hidden;rotatable=0;points=[[0,0.5],[1,0.5]];portConstraint=eastwest;whiteSpace=wrap;rounded=0;html=1;" parent="171" vertex="1">
                    <mxGeometry y="628" width="253" height="26" as="geometry"/>
                </mxCell>
                <mxCell id="186" value="" style="line;strokeColor=none;fillColor=none;align=left;verticalAlign=middle;spacingLeft=4;spacingRight=4;overflow=hidden;rotatable=0;points=[[0,0.5],[1,0.5]];portConstraint=eastwest;" parent="171" vertex="1">
                    <mxGeometry y="654" width="253" height="2" as="geometry"/>
                </mxCell>
                <mxCell id="187" value="+ setBeanFactory(arg0: BeanFactory): void" style="text;strokeColor=none;fillColor=none;align=left;verticalAlign=top;spacingLeft=4;spacingRight=4;overflow=hidden;rotatable=0;points=[[0,0.5],[1,0.5]];portConstraint=eastwest;whiteSpace=wrap;rounded=0;html=1;" parent="171" vertex="1">
                    <mxGeometry y="656" width="253" height="52" as="geometry"/>
                </mxCell>
                <mxCell id="188" value="~ CGLIB$securityFilterChain$0(arg0: HttpSecurity): SecurityFilterChain" style="text;strokeColor=none;fillColor=none;align=left;verticalAlign=top;spacingLeft=4;spacingRight=4;overflow=hidden;rotatable=0;points=[[0,0.5],[1,0.5]];portConstraint=eastwest;whiteSpace=wrap;rounded=0;html=1;" parent="171" vertex="1">
                    <mxGeometry y="708" width="253" height="52" as="geometry"/>
                </mxCell>
                <mxCell id="189" value="+ securityFilterChain(arg0: HttpSecurity): SecurityFilterChain" style="text;strokeColor=none;fillColor=none;align=left;verticalAlign=top;spacingLeft=4;spacingRight=4;overflow=hidden;rotatable=0;points=[[0,0.5],[1,0.5]];portConstraint=eastwest;whiteSpace=wrap;rounded=0;html=1;" parent="171" vertex="1">
                    <mxGeometry y="760" width="253" height="52" as="geometry"/>
                </mxCell>
                <mxCell id="190" value="~ CGLIB$STATICHOOK8(): void" style="text;strokeColor=none;fillColor=none;align=left;verticalAlign=top;spacingLeft=4;spacingRight=4;overflow=hidden;rotatable=0;points=[[0,0.5],[1,0.5]];portConstraint=eastwest;whiteSpace=wrap;rounded=0;html=1;" parent="171" vertex="1">
                    <mxGeometry y="812" width="253" height="26" as="geometry"/>
                </mxCell>
                <mxCell id="191" value="~ CGLIB$STATICHOOK7(): void" style="text;strokeColor=none;fillColor=none;align=left;verticalAlign=top;spacingLeft=4;spacingRight=4;overflow=hidden;rotatable=0;points=[[0,0.5],[1,0.5]];portConstraint=eastwest;whiteSpace=wrap;rounded=0;html=1;" parent="171" vertex="1">
                    <mxGeometry y="838" width="253" height="26" as="geometry"/>
                </mxCell>
                <mxCell id="192" value="+ CGLIB$SET_THREAD_CALLBACKS(arg0: Callback[]): void" style="text;strokeColor=none;fillColor=none;align=left;verticalAlign=top;spacingLeft=4;spacingRight=4;overflow=hidden;rotatable=0;points=[[0,0.5],[1,0.5]];portConstraint=eastwest;whiteSpace=wrap;rounded=0;html=1;" parent="171" vertex="1">
                    <mxGeometry y="864" width="253" height="52" as="geometry"/>
                </mxCell>
                <mxCell id="193" value="+ CGLIB$SET_STATIC_CALLBACKS(arg0: Callback[]): void" style="text;strokeColor=none;fillColor=none;align=left;verticalAlign=top;spacingLeft=4;spacingRight=4;overflow=hidden;rotatable=0;points=[[0,0.5],[1,0.5]];portConstraint=eastwest;whiteSpace=wrap;rounded=0;html=1;" parent="171" vertex="1">
                    <mxGeometry y="916" width="253" height="52" as="geometry"/>
                </mxCell>
                <mxCell id="194" value="+ CGLIB$findMethodProxy(arg0: Signature): MethodProxy" style="text;strokeColor=none;fillColor=none;align=left;verticalAlign=top;spacingLeft=4;spacingRight=4;overflow=hidden;rotatable=0;points=[[0,0.5],[1,0.5]];portConstraint=eastwest;whiteSpace=wrap;rounded=0;html=1;" parent="171" vertex="1">
                    <mxGeometry y="968" width="253" height="52" as="geometry"/>
                </mxCell>
                <mxCell id="195" value="- CGLIB$BIND_CALLBACKS(arg0: Object): void" style="text;strokeColor=none;fillColor=none;align=left;verticalAlign=top;spacingLeft=4;spacingRight=4;overflow=hidden;rotatable=0;points=[[0,0.5],[1,0.5]];portConstraint=eastwest;whiteSpace=wrap;rounded=0;html=1;" parent="171" vertex="1">
                    <mxGeometry y="1020" width="253" height="52" as="geometry"/>
                </mxCell>
                <mxCell id="196" value="~ CGLIB$setBeanFactory$5(arg0: BeanFactory): void" style="text;strokeColor=none;fillColor=none;align=left;verticalAlign=top;spacingLeft=4;spacingRight=4;overflow=hidden;rotatable=0;points=[[0,0.5],[1,0.5]];portConstraint=eastwest;whiteSpace=wrap;rounded=0;html=1;" parent="171" vertex="1">
                    <mxGeometry y="1072" width="253" height="52" as="geometry"/>
                </mxCell>
                <mxCell id="197" value="&amp;laquo;@Component&amp;raquo;&lt;br&gt;&lt;b&gt;CorsConfig$$SpringCGLIB$$0&lt;/b&gt;" style="swimlane;fontStyle=1;align=center;verticalAlign=top;childLayout=stackLayout;horizontal=1;startSize=30;fillColor=#ffffff;swimlaneFillColor=#ffffff;strokeColor=#000000;html=1;whiteSpace=wrap;" parent="170" vertex="1">
                    <mxGeometry x="20" y="1214" width="7025" height="170" as="geometry"/>
                </mxCell>
                <mxCell id="199" value="+ CGLIB$FACTORY_DATA: Object" style="text;strokeColor=none;fillColor=none;align=left;verticalAlign=top;spacingLeft=4;spacingRight=4;overflow=hidden;rotatable=0;points=[[0,0.5],[1,0.5]];portConstraint=eastwest;whiteSpace=wrap;rounded=0;html=1;" parent="197" vertex="1">
                    <mxGeometry y="30" width="281" height="140" as="geometry"/>
                </mxCell>
                <mxCell id="198" value="- CGLIB$BOUND: boolean" style="text;strokeColor=none;fillColor=none;align=left;verticalAlign=top;spacingLeft=4;spacingRight=4;overflow=hidden;rotatable=0;points=[[0,0.5],[1,0.5]];portConstraint=eastwest;whiteSpace=wrap;rounded=0;html=1;" parent="197" vertex="1">
                    <mxGeometry x="281" y="30" width="281" height="140" as="geometry"/>
                </mxCell>
                <mxCell id="200" value="- CGLIB$THREAD_CALLBACKS: ThreadLocal" style="text;strokeColor=none;fillColor=none;align=left;verticalAlign=top;spacingLeft=4;spacingRight=4;overflow=hidden;rotatable=0;points=[[0,0.5],[1,0.5]];portConstraint=eastwest;whiteSpace=wrap;rounded=0;html=1;" parent="197" vertex="1">
                    <mxGeometry x="562" y="30" width="281" height="140" as="geometry"/>
                </mxCell>
                <mxCell id="201" value="- CGLIB$STATIC_CALLBACKS: Callback[]" style="text;strokeColor=none;fillColor=none;align=left;verticalAlign=top;spacingLeft=4;spacingRight=4;overflow=hidden;rotatable=0;points=[[0,0.5],[1,0.5]];portConstraint=eastwest;whiteSpace=wrap;rounded=0;html=1;" parent="197" vertex="1">
                    <mxGeometry x="843" y="30" width="281" height="140" as="geometry"/>
                </mxCell>
                <mxCell id="202" value="- CGLIB$CALLBACK_0: MethodInterceptor" style="text;strokeColor=none;fillColor=none;align=left;verticalAlign=top;spacingLeft=4;spacingRight=4;overflow=hidden;rotatable=0;points=[[0,0.5],[1,0.5]];portConstraint=eastwest;whiteSpace=wrap;rounded=0;html=1;" parent="197" vertex="1">
                    <mxGeometry x="1124" y="30" width="281" height="140" as="geometry"/>
                </mxCell>
                <mxCell id="203" value="- CGLIB$CALLBACK_1: MethodInterceptor" style="text;strokeColor=none;fillColor=none;align=left;verticalAlign=top;spacingLeft=4;spacingRight=4;overflow=hidden;rotatable=0;points=[[0,0.5],[1,0.5]];portConstraint=eastwest;whiteSpace=wrap;rounded=0;html=1;" parent="197" vertex="1">
                    <mxGeometry x="1405" y="30" width="281" height="140" as="geometry"/>
                </mxCell>
                <mxCell id="204" value="- CGLIB$CALLBACK_2: NoOp" style="text;strokeColor=none;fillColor=none;align=left;verticalAlign=top;spacingLeft=4;spacingRight=4;overflow=hidden;rotatable=0;points=[[0,0.5],[1,0.5]];portConstraint=eastwest;whiteSpace=wrap;rounded=0;html=1;" parent="197" vertex="1">
                    <mxGeometry x="1686" y="30" width="281" height="140" as="geometry"/>
                </mxCell>
                <mxCell id="205" value="- CGLIB$CALLBACK_FILTER: Object" style="text;strokeColor=none;fillColor=none;align=left;verticalAlign=top;spacingLeft=4;spacingRight=4;overflow=hidden;rotatable=0;points=[[0,0.5],[1,0.5]];portConstraint=eastwest;whiteSpace=wrap;rounded=0;html=1;" parent="197" vertex="1">
                    <mxGeometry x="1967" y="30" width="281" height="140" as="geometry"/>
                </mxCell>
                <mxCell id="206" value="- CGLIB$corsConfigurationSource$0$Method: Method" style="text;strokeColor=none;fillColor=none;align=left;verticalAlign=top;spacingLeft=4;spacingRight=4;overflow=hidden;rotatable=0;points=[[0,0.5],[1,0.5]];portConstraint=eastwest;whiteSpace=wrap;rounded=0;html=1;" parent="197" vertex="1">
                    <mxGeometry x="2248" y="30" width="281" height="140" as="geometry"/>
                </mxCell>
                <mxCell id="207" value="- CGLIB$corsConfigurationSource$0$Proxy: MethodProxy" style="text;strokeColor=none;fillColor=none;align=left;verticalAlign=top;spacingLeft=4;spacingRight=4;overflow=hidden;rotatable=0;points=[[0,0.5],[1,0.5]];portConstraint=eastwest;whiteSpace=wrap;rounded=0;html=1;" parent="197" vertex="1">
                    <mxGeometry x="2529" y="30" width="281" height="140" as="geometry"/>
                </mxCell>
                <mxCell id="208" value="- CGLIB$emptyArgs: Object[]" style="text;strokeColor=none;fillColor=none;align=left;verticalAlign=top;spacingLeft=4;spacingRight=4;overflow=hidden;rotatable=0;points=[[0,0.5],[1,0.5]];portConstraint=eastwest;whiteSpace=wrap;rounded=0;html=1;" parent="197" vertex="1">
                    <mxGeometry x="2810" y="30" width="281" height="140" as="geometry"/>
                </mxCell>
                <mxCell id="209" value="- CGLIB$setBeanFactory$5$Method: Method" style="text;strokeColor=none;fillColor=none;align=left;verticalAlign=top;spacingLeft=4;spacingRight=4;overflow=hidden;rotatable=0;points=[[0,0.5],[1,0.5]];portConstraint=eastwest;whiteSpace=wrap;rounded=0;html=1;" parent="197" vertex="1">
                    <mxGeometry x="3091" y="30" width="281" height="140" as="geometry"/>
                </mxCell>
                <mxCell id="210" value="- CGLIB$setBeanFactory$5$Proxy: MethodProxy" style="text;strokeColor=none;fillColor=none;align=left;verticalAlign=top;spacingLeft=4;spacingRight=4;overflow=hidden;rotatable=0;points=[[0,0.5],[1,0.5]];portConstraint=eastwest;whiteSpace=wrap;rounded=0;html=1;" parent="197" vertex="1">
                    <mxGeometry x="3372" y="30" width="281" height="140" as="geometry"/>
                </mxCell>
                <mxCell id="211" value="+ $$beanFactory: BeanFactory" style="text;strokeColor=none;fillColor=none;align=left;verticalAlign=top;spacingLeft=4;spacingRight=4;overflow=hidden;rotatable=0;points=[[0,0.5],[1,0.5]];portConstraint=eastwest;whiteSpace=wrap;rounded=0;html=1;" parent="197" vertex="1">
                    <mxGeometry x="3653" y="30" width="281" height="140" as="geometry"/>
                </mxCell>
                <mxCell id="212" value="" style="line;strokeColor=none;fillColor=none;align=left;verticalAlign=middle;spacingLeft=4;spacingRight=4;overflow=hidden;rotatable=0;points=[[0,0.5],[1,0.5]];portConstraint=eastwest;" parent="197" vertex="1">
                    <mxGeometry x="3934" y="30" width="281" height="140" as="geometry"/>
                </mxCell>
                <mxCell id="213" value="+ setBeanFactory(arg0: BeanFactory): void" style="text;strokeColor=none;fillColor=none;align=left;verticalAlign=top;spacingLeft=4;spacingRight=4;overflow=hidden;rotatable=0;points=[[0,0.5],[1,0.5]];portConstraint=eastwest;whiteSpace=wrap;rounded=0;html=1;" parent="197" vertex="1">
                    <mxGeometry x="4215" y="30" width="281" height="140" as="geometry"/>
                </mxCell>
                <mxCell id="214" value="~ CGLIB$corsConfigurationSource$0(): UrlBasedCorsConfigurationSource" style="text;strokeColor=none;fillColor=none;align=left;verticalAlign=top;spacingLeft=4;spacingRight=4;overflow=hidden;rotatable=0;points=[[0,0.5],[1,0.5]];portConstraint=eastwest;whiteSpace=wrap;rounded=0;html=1;" parent="197" vertex="1">
                    <mxGeometry x="4496" y="30" width="281" height="140" as="geometry"/>
                </mxCell>
                <mxCell id="215" value="+ corsConfigurationSource(): UrlBasedCorsConfigurationSource" style="text;strokeColor=none;fillColor=none;align=left;verticalAlign=top;spacingLeft=4;spacingRight=4;overflow=hidden;rotatable=0;points=[[0,0.5],[1,0.5]];portConstraint=eastwest;whiteSpace=wrap;rounded=0;html=1;" parent="197" vertex="1">
                    <mxGeometry x="4777" y="30" width="281" height="140" as="geometry"/>
                </mxCell>
                <mxCell id="216" value="~ CGLIB$STATICHOOK3(): void" style="text;strokeColor=none;fillColor=none;align=left;verticalAlign=top;spacingLeft=4;spacingRight=4;overflow=hidden;rotatable=0;points=[[0,0.5],[1,0.5]];portConstraint=eastwest;whiteSpace=wrap;rounded=0;html=1;" parent="197" vertex="1">
                    <mxGeometry x="5058" y="30" width="281" height="140" as="geometry"/>
                </mxCell>
                <mxCell id="217" value="~ CGLIB$STATICHOOK4(): void" style="text;strokeColor=none;fillColor=none;align=left;verticalAlign=top;spacingLeft=4;spacingRight=4;overflow=hidden;rotatable=0;points=[[0,0.5],[1,0.5]];portConstraint=eastwest;whiteSpace=wrap;rounded=0;html=1;" parent="197" vertex="1">
                    <mxGeometry x="5339" y="30" width="281" height="140" as="geometry"/>
                </mxCell>
                <mxCell id="218" value="+ CGLIB$SET_THREAD_CALLBACKS(arg0: Callback[]): void" style="text;strokeColor=none;fillColor=none;align=left;verticalAlign=top;spacingLeft=4;spacingRight=4;overflow=hidden;rotatable=0;points=[[0,0.5],[1,0.5]];portConstraint=eastwest;whiteSpace=wrap;rounded=0;html=1;" parent="197" vertex="1">
                    <mxGeometry x="5620" y="30" width="281" height="140" as="geometry"/>
                </mxCell>
                <mxCell id="219" value="+ CGLIB$SET_STATIC_CALLBACKS(arg0: Callback[]): void" style="text;strokeColor=none;fillColor=none;align=left;verticalAlign=top;spacingLeft=4;spacingRight=4;overflow=hidden;rotatable=0;points=[[0,0.5],[1,0.5]];portConstraint=eastwest;whiteSpace=wrap;rounded=0;html=1;" parent="197" vertex="1">
                    <mxGeometry x="5901" y="30" width="281" height="140" as="geometry"/>
                </mxCell>
                <mxCell id="220" value="+ CGLIB$findMethodProxy(arg0: Signature): MethodProxy" style="text;strokeColor=none;fillColor=none;align=left;verticalAlign=top;spacingLeft=4;spacingRight=4;overflow=hidden;rotatable=0;points=[[0,0.5],[1,0.5]];portConstraint=eastwest;whiteSpace=wrap;rounded=0;html=1;" parent="197" vertex="1">
                    <mxGeometry x="6182" y="30" width="281" height="140" as="geometry"/>
                </mxCell>
                <mxCell id="221" value="- CGLIB$BIND_CALLBACKS(arg0: Object): void" style="text;strokeColor=none;fillColor=none;align=left;verticalAlign=top;spacingLeft=4;spacingRight=4;overflow=hidden;rotatable=0;points=[[0,0.5],[1,0.5]];portConstraint=eastwest;whiteSpace=wrap;rounded=0;html=1;" parent="197" vertex="1">
                    <mxGeometry x="6463" y="30" width="281" height="140" as="geometry"/>
                </mxCell>
                <mxCell id="222" value="~ CGLIB$setBeanFactory$5(arg0: BeanFactory): void" style="text;strokeColor=none;fillColor=none;align=left;verticalAlign=top;spacingLeft=4;spacingRight=4;overflow=hidden;rotatable=0;points=[[0,0.5],[1,0.5]];portConstraint=eastwest;whiteSpace=wrap;rounded=0;html=1;" parent="197" vertex="1">
                    <mxGeometry x="6744" y="30" width="281" height="140" as="geometry"/>
                </mxCell>
                <mxCell id="223" value="&amp;laquo;@Component&amp;raquo;&lt;br&gt;&lt;b&gt;SecurityConfig$$SpringCGLIB$$0&lt;/b&gt;" style="swimlane;fontStyle=1;align=center;verticalAlign=top;childLayout=stackLayout;horizontal=1;startSize=30;fillColor=#ffffff;swimlaneFillColor=#ffffff;strokeColor=#000000;html=1;whiteSpace=wrap;" parent="170" vertex="1">
                    <mxGeometry x="20" y="2248" width="274" height="1592" as="geometry"/>
                </mxCell>
                <mxCell id="224" value="- CGLIB$BOUND: boolean" style="text;strokeColor=none;fillColor=none;align=left;verticalAlign=top;spacingLeft=4;spacingRight=4;overflow=hidden;rotatable=0;points=[[0,0.5],[1,0.5]];portConstraint=eastwest;whiteSpace=wrap;rounded=0;html=1;" parent="223" vertex="1">
                    <mxGeometry y="30" width="274" height="26" as="geometry"/>
                </mxCell>
                <mxCell id="225" value="+ CGLIB$FACTORY_DATA: Object" style="text;strokeColor=none;fillColor=none;align=left;verticalAlign=top;spacingLeft=4;spacingRight=4;overflow=hidden;rotatable=0;points=[[0,0.5],[1,0.5]];portConstraint=eastwest;whiteSpace=wrap;rounded=0;html=1;" parent="223" vertex="1">
                    <mxGeometry y="56" width="274" height="26" as="geometry"/>
                </mxCell>
                <mxCell id="226" value="- CGLIB$THREAD_CALLBACKS: ThreadLocal" style="text;strokeColor=none;fillColor=none;align=left;verticalAlign=top;spacingLeft=4;spacingRight=4;overflow=hidden;rotatable=0;points=[[0,0.5],[1,0.5]];portConstraint=eastwest;whiteSpace=wrap;rounded=0;html=1;" parent="223" vertex="1">
                    <mxGeometry y="82" width="274" height="26" as="geometry"/>
                </mxCell>
                <mxCell id="227" value="- CGLIB$STATIC_CALLBACKS: Callback[]" style="text;strokeColor=none;fillColor=none;align=left;verticalAlign=top;spacingLeft=4;spacingRight=4;overflow=hidden;rotatable=0;points=[[0,0.5],[1,0.5]];portConstraint=eastwest;whiteSpace=wrap;rounded=0;html=1;" parent="223" vertex="1">
                    <mxGeometry y="108" width="274" height="26" as="geometry"/>
                </mxCell>
                <mxCell id="228" value="- CGLIB$CALLBACK_0: MethodInterceptor" style="text;strokeColor=none;fillColor=none;align=left;verticalAlign=top;spacingLeft=4;spacingRight=4;overflow=hidden;rotatable=0;points=[[0,0.5],[1,0.5]];portConstraint=eastwest;whiteSpace=wrap;rounded=0;html=1;" parent="223" vertex="1">
                    <mxGeometry y="134" width="274" height="26" as="geometry"/>
                </mxCell>
                <mxCell id="229" value="- CGLIB$CALLBACK_1: MethodInterceptor" style="text;strokeColor=none;fillColor=none;align=left;verticalAlign=top;spacingLeft=4;spacingRight=4;overflow=hidden;rotatable=0;points=[[0,0.5],[1,0.5]];portConstraint=eastwest;whiteSpace=wrap;rounded=0;html=1;" parent="223" vertex="1">
                    <mxGeometry y="160" width="274" height="26" as="geometry"/>
                </mxCell>
                <mxCell id="230" value="- CGLIB$CALLBACK_2: NoOp" style="text;strokeColor=none;fillColor=none;align=left;verticalAlign=top;spacingLeft=4;spacingRight=4;overflow=hidden;rotatable=0;points=[[0,0.5],[1,0.5]];portConstraint=eastwest;whiteSpace=wrap;rounded=0;html=1;" parent="223" vertex="1">
                    <mxGeometry y="186" width="274" height="26" as="geometry"/>
                </mxCell>
                <mxCell id="231" value="- CGLIB$CALLBACK_FILTER: Object" style="text;strokeColor=none;fillColor=none;align=left;verticalAlign=top;spacingLeft=4;spacingRight=4;overflow=hidden;rotatable=0;points=[[0,0.5],[1,0.5]];portConstraint=eastwest;whiteSpace=wrap;rounded=0;html=1;" parent="223" vertex="1">
                    <mxGeometry y="212" width="274" height="26" as="geometry"/>
                </mxCell>
                <mxCell id="232" value="- CGLIB$authenticationManager$0$Method: Method" style="text;strokeColor=none;fillColor=none;align=left;verticalAlign=top;spacingLeft=4;spacingRight=4;overflow=hidden;rotatable=0;points=[[0,0.5],[1,0.5]];portConstraint=eastwest;whiteSpace=wrap;rounded=0;html=1;" parent="223" vertex="1">
                    <mxGeometry y="238" width="274" height="78" as="geometry"/>
                </mxCell>
                <mxCell id="233" value="- CGLIB$authenticationManager$0$Proxy: MethodProxy" style="text;strokeColor=none;fillColor=none;align=left;verticalAlign=top;spacingLeft=4;spacingRight=4;overflow=hidden;rotatable=0;points=[[0,0.5],[1,0.5]];portConstraint=eastwest;whiteSpace=wrap;rounded=0;html=1;" parent="223" vertex="1">
                    <mxGeometry y="316" width="274" height="52" as="geometry"/>
                </mxCell>
                <mxCell id="234" value="- CGLIB$emptyArgs: Object[]" style="text;strokeColor=none;fillColor=none;align=left;verticalAlign=top;spacingLeft=4;spacingRight=4;overflow=hidden;rotatable=0;points=[[0,0.5],[1,0.5]];portConstraint=eastwest;whiteSpace=wrap;rounded=0;html=1;" parent="223" vertex="1">
                    <mxGeometry y="368" width="274" height="26" as="geometry"/>
                </mxCell>
                <mxCell id="235" value="- CGLIB$passwordEncoder$1$Method: Method" style="text;strokeColor=none;fillColor=none;align=left;verticalAlign=top;spacingLeft=4;spacingRight=4;overflow=hidden;rotatable=0;points=[[0,0.5],[1,0.5]];portConstraint=eastwest;whiteSpace=wrap;rounded=0;html=1;" parent="223" vertex="1">
                    <mxGeometry y="394" width="274" height="52" as="geometry"/>
                </mxCell>
                <mxCell id="236" value="- CGLIB$passwordEncoder$1$Proxy: MethodProxy" style="text;strokeColor=none;fillColor=none;align=left;verticalAlign=top;spacingLeft=4;spacingRight=4;overflow=hidden;rotatable=0;points=[[0,0.5],[1,0.5]];portConstraint=eastwest;whiteSpace=wrap;rounded=0;html=1;" parent="223" vertex="1">
                    <mxGeometry y="446" width="274" height="52" as="geometry"/>
                </mxCell>
                <mxCell id="237" value="- CGLIB$authenticationProvider$2$Method: Method" style="text;strokeColor=none;fillColor=none;align=left;verticalAlign=top;spacingLeft=4;spacingRight=4;overflow=hidden;rotatable=0;points=[[0,0.5],[1,0.5]];portConstraint=eastwest;whiteSpace=wrap;rounded=0;html=1;" parent="223" vertex="1">
                    <mxGeometry y="498" width="274" height="78" as="geometry"/>
                </mxCell>
                <mxCell id="238" value="- CGLIB$authenticationProvider$2$Proxy: MethodProxy" style="text;strokeColor=none;fillColor=none;align=left;verticalAlign=top;spacingLeft=4;spacingRight=4;overflow=hidden;rotatable=0;points=[[0,0.5],[1,0.5]];portConstraint=eastwest;whiteSpace=wrap;rounded=0;html=1;" parent="223" vertex="1">
                    <mxGeometry y="576" width="274" height="78" as="geometry"/>
                </mxCell>
                <mxCell id="239" value="- CGLIB$setBeanFactory$7$Method: Method" style="text;strokeColor=none;fillColor=none;align=left;verticalAlign=top;spacingLeft=4;spacingRight=4;overflow=hidden;rotatable=0;points=[[0,0.5],[1,0.5]];portConstraint=eastwest;whiteSpace=wrap;rounded=0;html=1;" parent="223" vertex="1">
                    <mxGeometry y="654" width="274" height="52" as="geometry"/>
                </mxCell>
                <mxCell id="240" value="- CGLIB$setBeanFactory$7$Proxy: MethodProxy" style="text;strokeColor=none;fillColor=none;align=left;verticalAlign=top;spacingLeft=4;spacingRight=4;overflow=hidden;rotatable=0;points=[[0,0.5],[1,0.5]];portConstraint=eastwest;whiteSpace=wrap;rounded=0;html=1;" parent="223" vertex="1">
                    <mxGeometry y="706" width="274" height="52" as="geometry"/>
                </mxCell>
                <mxCell id="241" value="+ $$beanFactory: BeanFactory" style="text;strokeColor=none;fillColor=none;align=left;verticalAlign=top;spacingLeft=4;spacingRight=4;overflow=hidden;rotatable=0;points=[[0,0.5],[1,0.5]];portConstraint=eastwest;whiteSpace=wrap;rounded=0;html=1;" parent="223" vertex="1">
                    <mxGeometry y="758" width="274" height="26" as="geometry"/>
                </mxCell>
                <mxCell id="242" value="" style="line;strokeColor=none;fillColor=none;align=left;verticalAlign=middle;spacingLeft=4;spacingRight=4;overflow=hidden;rotatable=0;points=[[0,0.5],[1,0.5]];portConstraint=eastwest;" parent="223" vertex="1">
                    <mxGeometry y="784" width="274" height="2" as="geometry"/>
                </mxCell>
                <mxCell id="243" value="+ setBeanFactory(arg0: BeanFactory): void" style="text;strokeColor=none;fillColor=none;align=left;verticalAlign=top;spacingLeft=4;spacingRight=4;overflow=hidden;rotatable=0;points=[[0,0.5],[1,0.5]];portConstraint=eastwest;whiteSpace=wrap;rounded=0;html=1;" parent="223" vertex="1">
                    <mxGeometry y="786" width="274" height="52" as="geometry"/>
                </mxCell>
                <mxCell id="244" value="~ CGLIB$authenticationManager$0(arg0: AuthenticationConfiguration): AuthenticationManager" style="text;strokeColor=none;fillColor=none;align=left;verticalAlign=top;spacingLeft=4;spacingRight=4;overflow=hidden;rotatable=0;points=[[0,0.5],[1,0.5]];portConstraint=eastwest;whiteSpace=wrap;rounded=0;html=1;" parent="223" vertex="1">
                    <mxGeometry y="838" width="274" height="78" as="geometry"/>
                </mxCell>
                <mxCell id="245" value="~ CGLIB$authenticationProvider$2(arg0: UserDetailsService, arg1: PasswordEncoder): AuthenticationProvider" style="text;strokeColor=none;fillColor=none;align=left;verticalAlign=top;spacingLeft=4;spacingRight=4;overflow=hidden;rotatable=0;points=[[0,0.5],[1,0.5]];portConstraint=eastwest;whiteSpace=wrap;rounded=0;html=1;" parent="223" vertex="1">
                    <mxGeometry y="916" width="274" height="104" as="geometry"/>
                </mxCell>
                <mxCell id="246" value="+ authenticationManager(arg0: AuthenticationConfiguration): AuthenticationManager" style="text;strokeColor=none;fillColor=none;align=left;verticalAlign=top;spacingLeft=4;spacingRight=4;overflow=hidden;rotatable=0;points=[[0,0.5],[1,0.5]];portConstraint=eastwest;whiteSpace=wrap;rounded=0;html=1;" parent="223" vertex="1">
                    <mxGeometry y="1020" width="274" height="78" as="geometry"/>
                </mxCell>
                <mxCell id="247" value="+ passwordEncoder(): PasswordEncoder" style="text;strokeColor=none;fillColor=none;align=left;verticalAlign=top;spacingLeft=4;spacingRight=4;overflow=hidden;rotatable=0;points=[[0,0.5],[1,0.5]];portConstraint=eastwest;whiteSpace=wrap;rounded=0;html=1;" parent="223" vertex="1">
                    <mxGeometry y="1098" width="274" height="26" as="geometry"/>
                </mxCell>
                <mxCell id="248" value="+ authenticationProvider(arg0: UserDetailsService, arg1: PasswordEncoder): AuthenticationProvider" style="text;strokeColor=none;fillColor=none;align=left;verticalAlign=top;spacingLeft=4;spacingRight=4;overflow=hidden;rotatable=0;points=[[0,0.5],[1,0.5]];portConstraint=eastwest;whiteSpace=wrap;rounded=0;html=1;" parent="223" vertex="1">
                    <mxGeometry y="1124" width="274" height="104" as="geometry"/>
                </mxCell>
                <mxCell id="249" value="~ CGLIB$STATICHOOK6(): void" style="text;strokeColor=none;fillColor=none;align=left;verticalAlign=top;spacingLeft=4;spacingRight=4;overflow=hidden;rotatable=0;points=[[0,0.5],[1,0.5]];portConstraint=eastwest;whiteSpace=wrap;rounded=0;html=1;" parent="223" vertex="1">
                    <mxGeometry y="1228" width="274" height="26" as="geometry"/>
                </mxCell>
                <mxCell id="250" value="~ CGLIB$STATICHOOK5(): void" style="text;strokeColor=none;fillColor=none;align=left;verticalAlign=top;spacingLeft=4;spacingRight=4;overflow=hidden;rotatable=0;points=[[0,0.5],[1,0.5]];portConstraint=eastwest;whiteSpace=wrap;rounded=0;html=1;" parent="223" vertex="1">
                    <mxGeometry y="1254" width="274" height="26" as="geometry"/>
                </mxCell>
                <mxCell id="251" value="+ CGLIB$SET_THREAD_CALLBACKS(arg0: Callback[]): void" style="text;strokeColor=none;fillColor=none;align=left;verticalAlign=top;spacingLeft=4;spacingRight=4;overflow=hidden;rotatable=0;points=[[0,0.5],[1,0.5]];portConstraint=eastwest;whiteSpace=wrap;rounded=0;html=1;" parent="223" vertex="1">
                    <mxGeometry y="1280" width="274" height="52" as="geometry"/>
                </mxCell>
                <mxCell id="252" value="+ CGLIB$SET_STATIC_CALLBACKS(arg0: Callback[]): void" style="text;strokeColor=none;fillColor=none;align=left;verticalAlign=top;spacingLeft=4;spacingRight=4;overflow=hidden;rotatable=0;points=[[0,0.5],[1,0.5]];portConstraint=eastwest;whiteSpace=wrap;rounded=0;html=1;" parent="223" vertex="1">
                    <mxGeometry y="1332" width="274" height="52" as="geometry"/>
                </mxCell>
                <mxCell id="253" value="+ CGLIB$findMethodProxy(arg0: Signature): MethodProxy" style="text;strokeColor=none;fillColor=none;align=left;verticalAlign=top;spacingLeft=4;spacingRight=4;overflow=hidden;rotatable=0;points=[[0,0.5],[1,0.5]];portConstraint=eastwest;whiteSpace=wrap;rounded=0;html=1;" parent="223" vertex="1">
                    <mxGeometry y="1384" width="274" height="52" as="geometry"/>
                </mxCell>
                <mxCell id="254" value="- CGLIB$BIND_CALLBACKS(arg0: Object): void" style="text;strokeColor=none;fillColor=none;align=left;verticalAlign=top;spacingLeft=4;spacingRight=4;overflow=hidden;rotatable=0;points=[[0,0.5],[1,0.5]];portConstraint=eastwest;whiteSpace=wrap;rounded=0;html=1;" parent="223" vertex="1">
                    <mxGeometry y="1436" width="274" height="52" as="geometry"/>
                </mxCell>
                <mxCell id="255" value="~ CGLIB$passwordEncoder$1(): PasswordEncoder" style="text;strokeColor=none;fillColor=none;align=left;verticalAlign=top;spacingLeft=4;spacingRight=4;overflow=hidden;rotatable=0;points=[[0,0.5],[1,0.5]];portConstraint=eastwest;whiteSpace=wrap;rounded=0;html=1;" parent="223" vertex="1">
                    <mxGeometry y="1488" width="274" height="52" as="geometry"/>
                </mxCell>
                <mxCell id="256" value="~ CGLIB$setBeanFactory$7(arg0: BeanFactory): void" style="text;strokeColor=none;fillColor=none;align=left;verticalAlign=top;spacingLeft=4;spacingRight=4;overflow=hidden;rotatable=0;points=[[0,0.5],[1,0.5]];portConstraint=eastwest;whiteSpace=wrap;rounded=0;html=1;" parent="223" vertex="1">
                    <mxGeometry y="1540" width="274" height="52" as="geometry"/>
                </mxCell>
                <mxCell id="257" value="services" style="swimlane;html=1;startSize=30;horizontal=1;fillColor=none;swimlaneFillColor=none;collapsible=1;swimlaneLine=1;strokeColor=#000000;rounded=0;align=center;verticalAlign=top;fontStyle=1;whiteSpace=wrap;" parent="2" vertex="1">
                    <mxGeometry x="20" y="11936" width="280" height="3334" as="geometry"/>
                </mxCell>
                <mxCell id="258" value="&amp;laquo;@Service&amp;raquo;&lt;br&gt;&lt;b&gt;UserService&lt;/b&gt;" style="swimlane;fontStyle=1;align=center;verticalAlign=top;childLayout=stackLayout;horizontal=1;startSize=30;fillColor=#ffffff;swimlaneFillColor=#ffffff;strokeColor=#000000;html=1;whiteSpace=wrap;" parent="257" vertex="1">
                    <mxGeometry x="20" y="50" width="240" height="786" as="geometry"/>
                </mxCell>
                <mxCell id="259" value="- userRepository: UserRepository" style="text;strokeColor=none;fillColor=none;align=left;verticalAlign=top;spacingLeft=4;spacingRight=4;overflow=hidden;rotatable=0;points=[[0,0.5],[1,0.5]];portConstraint=eastwest;whiteSpace=wrap;rounded=0;html=1;" parent="258" vertex="1">
                    <mxGeometry y="30" width="240" height="26" as="geometry"/>
                </mxCell>
                <mxCell id="260" value="- passwordEncoder: PasswordEncoder" style="text;strokeColor=none;fillColor=none;align=left;verticalAlign=top;spacingLeft=4;spacingRight=4;overflow=hidden;rotatable=0;points=[[0,0.5],[1,0.5]];portConstraint=eastwest;whiteSpace=wrap;rounded=0;html=1;" parent="258" vertex="1">
                    <mxGeometry y="56" width="240" height="52" as="geometry"/>
                </mxCell>
                <mxCell id="261" value="- roleRepository: RoleRepository" style="text;strokeColor=none;fillColor=none;align=left;verticalAlign=top;spacingLeft=4;spacingRight=4;overflow=hidden;rotatable=0;points=[[0,0.5],[1,0.5]];portConstraint=eastwest;whiteSpace=wrap;rounded=0;html=1;" parent="258" vertex="1">
                    <mxGeometry y="108" width="240" height="26" as="geometry"/>
                </mxCell>
                <mxCell id="262" value="- userDTOMapper: UserDTOMapper" style="text;strokeColor=none;fillColor=none;align=left;verticalAlign=top;spacingLeft=4;spacingRight=4;overflow=hidden;rotatable=0;points=[[0,0.5],[1,0.5]];portConstraint=eastwest;whiteSpace=wrap;rounded=0;html=1;" parent="258" vertex="1">
                    <mxGeometry y="134" width="240" height="26" as="geometry"/>
                </mxCell>
                <mxCell id="263" value="- pageSize: int" style="text;strokeColor=none;fillColor=none;align=left;verticalAlign=top;spacingLeft=4;spacingRight=4;overflow=hidden;rotatable=0;points=[[0,0.5],[1,0.5]];portConstraint=eastwest;whiteSpace=wrap;rounded=0;html=1;" parent="258" vertex="1">
                    <mxGeometry y="160" width="240" height="26" as="geometry"/>
                </mxCell>
                <mxCell id="264" value="" style="line;strokeColor=none;fillColor=none;align=left;verticalAlign=middle;spacingLeft=4;spacingRight=4;overflow=hidden;rotatable=0;points=[[0,0.5],[1,0.5]];portConstraint=eastwest;" parent="258" vertex="1">
                    <mxGeometry y="186" width="240" height="2" as="geometry"/>
                </mxCell>
                <mxCell id="265" value="+ getUser(email: String): UserDTO" style="text;strokeColor=none;fillColor=none;align=left;verticalAlign=top;spacingLeft=4;spacingRight=4;overflow=hidden;rotatable=0;points=[[0,0.5],[1,0.5]];portConstraint=eastwest;whiteSpace=wrap;rounded=0;html=1;" parent="258" vertex="1">
                    <mxGeometry y="188" width="240" height="26" as="geometry"/>
                </mxCell>
                <mxCell id="266" value="+ createUser(request: AuthenticationSignupRequest): User" style="text;strokeColor=none;fillColor=none;align=left;verticalAlign=top;spacingLeft=4;spacingRight=4;overflow=hidden;rotatable=0;points=[[0,0.5],[1,0.5]];portConstraint=eastwest;whiteSpace=wrap;rounded=0;html=1;" parent="258" vertex="1">
                    <mxGeometry y="214" width="240" height="78" as="geometry"/>
                </mxCell>
                <mxCell id="267" value="+ createAdministrator(request: AuthenticationSignupRequest): User" style="text;strokeColor=none;fillColor=none;align=left;verticalAlign=top;spacingLeft=4;spacingRight=4;overflow=hidden;rotatable=0;points=[[0,0.5],[1,0.5]];portConstraint=eastwest;whiteSpace=wrap;rounded=0;html=1;" parent="258" vertex="1">
                    <mxGeometry y="292" width="240" height="78" as="geometry"/>
                </mxCell>
                <mxCell id="268" value="+ allUsers(pageNumber: Integer): AllUsersResponse" style="text;strokeColor=none;fillColor=none;align=left;verticalAlign=top;spacingLeft=4;spacingRight=4;overflow=hidden;rotatable=0;points=[[0,0.5],[1,0.5]];portConstraint=eastwest;whiteSpace=wrap;rounded=0;html=1;" parent="258" vertex="1">
                    <mxGeometry y="370" width="240" height="52" as="geometry"/>
                </mxCell>
                <mxCell id="269" value="+ allUsers(pageNumber: Integer, sortBy: String, direction: Direction): AllUsersResponse" style="text;strokeColor=none;fillColor=none;align=left;verticalAlign=top;spacingLeft=4;spacingRight=4;overflow=hidden;rotatable=0;points=[[0,0.5],[1,0.5]];portConstraint=eastwest;whiteSpace=wrap;rounded=0;html=1;" parent="258" vertex="1">
                    <mxGeometry y="422" width="240" height="78" as="geometry"/>
                </mxCell>
                <mxCell id="270" value="- lambda$0(arg0: String): ResourceNotFoundExeption" style="text;strokeColor=none;fillColor=none;align=left;verticalAlign=top;spacingLeft=4;spacingRight=4;overflow=hidden;rotatable=0;points=[[0,0.5],[1,0.5]];portConstraint=eastwest;whiteSpace=wrap;rounded=0;html=1;" parent="258" vertex="1">
                    <mxGeometry y="500" width="240" height="52" as="geometry"/>
                </mxCell>
                <mxCell id="271" value="+ isRegisterRequestValid(request: AuthenticationSignupRequest): boolean" style="text;strokeColor=none;fillColor=none;align=left;verticalAlign=top;spacingLeft=4;spacingRight=4;overflow=hidden;rotatable=0;points=[[0,0.5],[1,0.5]];portConstraint=eastwest;whiteSpace=wrap;rounded=0;html=1;" parent="258" vertex="1">
                    <mxGeometry y="552" width="240" height="78" as="geometry"/>
                </mxCell>
                <mxCell id="272" value="+ updateUser(): void" style="text;strokeColor=none;fillColor=none;align=left;verticalAlign=top;spacingLeft=4;spacingRight=4;overflow=hidden;rotatable=0;points=[[0,0.5],[1,0.5]];portConstraint=eastwest;whiteSpace=wrap;rounded=0;html=1;" parent="258" vertex="1">
                    <mxGeometry y="630" width="240" height="26" as="geometry"/>
                </mxCell>
                <mxCell id="273" value="+ deleteUser(): void" style="text;strokeColor=none;fillColor=none;align=left;verticalAlign=top;spacingLeft=4;spacingRight=4;overflow=hidden;rotatable=0;points=[[0,0.5],[1,0.5]];portConstraint=eastwest;whiteSpace=wrap;rounded=0;html=1;" parent="258" vertex="1">
                    <mxGeometry y="656" width="240" height="26" as="geometry"/>
                </mxCell>
                <mxCell id="274" value="+ isEmailValidation(email: String): boolean" style="text;strokeColor=none;fillColor=none;align=left;verticalAlign=top;spacingLeft=4;spacingRight=4;overflow=hidden;rotatable=0;points=[[0,0.5],[1,0.5]];portConstraint=eastwest;whiteSpace=wrap;rounded=0;html=1;" parent="258" vertex="1">
                    <mxGeometry y="682" width="240" height="52" as="geometry"/>
                </mxCell>
                <mxCell id="275" value="+ updateLastSign(email: String): void" style="text;strokeColor=none;fillColor=none;align=left;verticalAlign=top;spacingLeft=4;spacingRight=4;overflow=hidden;rotatable=0;points=[[0,0.5],[1,0.5]];portConstraint=eastwest;whiteSpace=wrap;rounded=0;html=1;" parent="258" vertex="1">
                    <mxGeometry y="734" width="240" height="52" as="geometry"/>
                </mxCell>
                <mxCell id="276" value="&amp;laquo;@Service&amp;raquo;&lt;br&gt;&lt;b&gt;AuthenticationService&lt;/b&gt;" style="swimlane;fontStyle=1;align=center;verticalAlign=top;childLayout=stackLayout;horizontal=1;startSize=30;fillColor=#ffffff;swimlaneFillColor=#ffffff;strokeColor=#000000;html=1;whiteSpace=wrap;" parent="257" vertex="1">
                    <mxGeometry x="20" y="876" width="240" height="396" as="geometry"/>
                </mxCell>
                <mxCell id="277" value="- authenticationManager: AuthenticationManager" style="text;strokeColor=none;fillColor=none;align=left;verticalAlign=top;spacingLeft=4;spacingRight=4;overflow=hidden;rotatable=0;points=[[0,0.5],[1,0.5]];portConstraint=eastwest;whiteSpace=wrap;rounded=0;html=1;" parent="276" vertex="1">
                    <mxGeometry y="30" width="240" height="52" as="geometry"/>
                </mxCell>
                <mxCell id="278" value="- jwtUtil: JWTUtil" style="text;strokeColor=none;fillColor=none;align=left;verticalAlign=top;spacingLeft=4;spacingRight=4;overflow=hidden;rotatable=0;points=[[0,0.5],[1,0.5]];portConstraint=eastwest;whiteSpace=wrap;rounded=0;html=1;" parent="276" vertex="1">
                    <mxGeometry y="82" width="240" height="26" as="geometry"/>
                </mxCell>
                <mxCell id="279" value="- userDTOMapper: UserDTOMapper" style="text;strokeColor=none;fillColor=none;align=left;verticalAlign=top;spacingLeft=4;spacingRight=4;overflow=hidden;rotatable=0;points=[[0,0.5],[1,0.5]];portConstraint=eastwest;whiteSpace=wrap;rounded=0;html=1;" parent="276" vertex="1">
                    <mxGeometry y="108" width="240" height="26" as="geometry"/>
                </mxCell>
                <mxCell id="280" value="- userService: UserService" style="text;strokeColor=none;fillColor=none;align=left;verticalAlign=top;spacingLeft=4;spacingRight=4;overflow=hidden;rotatable=0;points=[[0,0.5],[1,0.5]];portConstraint=eastwest;whiteSpace=wrap;rounded=0;html=1;" parent="276" vertex="1">
                    <mxGeometry y="134" width="240" height="26" as="geometry"/>
                </mxCell>
                <mxCell id="281" value="" style="line;strokeColor=none;fillColor=none;align=left;verticalAlign=middle;spacingLeft=4;spacingRight=4;overflow=hidden;rotatable=0;points=[[0,0.5],[1,0.5]];portConstraint=eastwest;" parent="276" vertex="1">
                    <mxGeometry y="160" width="240" height="2" as="geometry"/>
                </mxCell>
                <mxCell id="282" value="+ registerAdmin(request: AuthenticationSignupRequest): String" style="text;strokeColor=none;fillColor=none;align=left;verticalAlign=top;spacingLeft=4;spacingRight=4;overflow=hidden;rotatable=0;points=[[0,0.5],[1,0.5]];portConstraint=eastwest;whiteSpace=wrap;rounded=0;html=1;" parent="276" vertex="1">
                    <mxGeometry y="162" width="240" height="78" as="geometry"/>
                </mxCell>
                <mxCell id="283" value="+ signup(request: AuthenticationSignupRequest): String" style="text;strokeColor=none;fillColor=none;align=left;verticalAlign=top;spacingLeft=4;spacingRight=4;overflow=hidden;rotatable=0;points=[[0,0.5],[1,0.5]];portConstraint=eastwest;whiteSpace=wrap;rounded=0;html=1;" parent="276" vertex="1">
                    <mxGeometry y="240" width="240" height="78" as="geometry"/>
                </mxCell>
                <mxCell id="284" value="+ signin(request: AuthenticationSigninRequest): String" style="text;strokeColor=none;fillColor=none;align=left;verticalAlign=top;spacingLeft=4;spacingRight=4;overflow=hidden;rotatable=0;points=[[0,0.5],[1,0.5]];portConstraint=eastwest;whiteSpace=wrap;rounded=0;html=1;" parent="276" vertex="1">
                    <mxGeometry y="318" width="240" height="78" as="geometry"/>
                </mxCell>
                <mxCell id="285" value="&amp;laquo;@Service&amp;raquo;&lt;br&gt;&lt;b&gt;ScrapeService&lt;/b&gt;" style="swimlane;fontStyle=1;align=center;verticalAlign=top;childLayout=stackLayout;horizontal=1;startSize=30;fillColor=#ffffff;swimlaneFillColor=#ffffff;strokeColor=#000000;html=1;whiteSpace=wrap;" parent="257" vertex="1">
                    <mxGeometry x="20" y="1312" width="240" height="1800" as="geometry"/>
                </mxCell>
                <mxCell id="286" value="- apiKeyRepository: ApiKeyRepository" style="text;strokeColor=none;fillColor=none;align=left;verticalAlign=top;spacingLeft=4;spacingRight=4;overflow=hidden;rotatable=0;points=[[0,0.5],[1,0.5]];portConstraint=eastwest;whiteSpace=wrap;rounded=0;html=1;" parent="285" vertex="1">
                    <mxGeometry y="30" width="240" height="52" as="geometry"/>
                </mxCell>
                <mxCell id="287" value="- searchQueryRepository: SearchQueryRepository" style="text;strokeColor=none;fillColor=none;align=left;verticalAlign=top;spacingLeft=4;spacingRight=4;overflow=hidden;rotatable=0;points=[[0,0.5],[1,0.5]];portConstraint=eastwest;whiteSpace=wrap;rounded=0;html=1;" parent="285" vertex="1">
                    <mxGeometry y="82" width="240" height="52" as="geometry"/>
                </mxCell>
                <mxCell id="288" value="- scrapeJobRepository: ScrapeJobRepository" style="text;strokeColor=none;fillColor=none;align=left;verticalAlign=top;spacingLeft=4;spacingRight=4;overflow=hidden;rotatable=0;points=[[0,0.5],[1,0.5]];portConstraint=eastwest;whiteSpace=wrap;rounded=0;html=1;" parent="285" vertex="1">
                    <mxGeometry y="134" width="240" height="52" as="geometry"/>
                </mxCell>
                <mxCell id="289" value="- fileManagment: FileManagement" style="text;strokeColor=none;fillColor=none;align=left;verticalAlign=top;spacingLeft=4;spacingRight=4;overflow=hidden;rotatable=0;points=[[0,0.5],[1,0.5]];portConstraint=eastwest;whiteSpace=wrap;rounded=0;html=1;" parent="285" vertex="1">
                    <mxGeometry y="186" width="240" height="26" as="geometry"/>
                </mxCell>
                <mxCell id="290" value="- scrapeDataRepository: ScrapeDataRepository" style="text;strokeColor=none;fillColor=none;align=left;verticalAlign=top;spacingLeft=4;spacingRight=4;overflow=hidden;rotatable=0;points=[[0,0.5],[1,0.5]];portConstraint=eastwest;whiteSpace=wrap;rounded=0;html=1;" parent="285" vertex="1">
                    <mxGeometry y="212" width="240" height="52" as="geometry"/>
                </mxCell>
                <mxCell id="291" value="- pageSize: int" style="text;strokeColor=none;fillColor=none;align=left;verticalAlign=top;spacingLeft=4;spacingRight=4;overflow=hidden;rotatable=0;points=[[0,0.5],[1,0.5]];portConstraint=eastwest;whiteSpace=wrap;rounded=0;html=1;" parent="285" vertex="1">
                    <mxGeometry y="264" width="240" height="26" as="geometry"/>
                </mxCell>
                <mxCell id="292" value="" style="line;strokeColor=none;fillColor=none;align=left;verticalAlign=middle;spacingLeft=4;spacingRight=4;overflow=hidden;rotatable=0;points=[[0,0.5],[1,0.5]];portConstraint=eastwest;" parent="285" vertex="1">
                    <mxGeometry y="290" width="240" height="2" as="geometry"/>
                </mxCell>
                <mxCell id="293" value="+ updateSearchQuery(id: UUID, updatedSearchQuery: SearchQuery): SearchQuery" style="text;strokeColor=none;fillColor=none;align=left;verticalAlign=top;spacingLeft=4;spacingRight=4;overflow=hidden;rotatable=0;points=[[0,0.5],[1,0.5]];portConstraint=eastwest;whiteSpace=wrap;rounded=0;html=1;" parent="285" vertex="1">
                    <mxGeometry y="292" width="240" height="78" as="geometry"/>
                </mxCell>
                <mxCell id="294" value="+ getSearchQuery(id: UUID): SearchQuery" style="text;strokeColor=none;fillColor=none;align=left;verticalAlign=top;spacingLeft=4;spacingRight=4;overflow=hidden;rotatable=0;points=[[0,0.5],[1,0.5]];portConstraint=eastwest;whiteSpace=wrap;rounded=0;html=1;" parent="285" vertex="1">
                    <mxGeometry y="370" width="240" height="52" as="geometry"/>
                </mxCell>
                <mxCell id="295" value="+ allSearchQuerys(page: int): Page&amp;lt;SearchQuery&amp;gt;" style="text;strokeColor=none;fillColor=none;align=left;verticalAlign=top;spacingLeft=4;spacingRight=4;overflow=hidden;rotatable=0;points=[[0,0.5],[1,0.5]];portConstraint=eastwest;whiteSpace=wrap;rounded=0;html=1;" parent="285" vertex="1">
                    <mxGeometry y="422" width="240" height="52" as="geometry"/>
                </mxCell>
                <mxCell id="296" value="+ deleteSearchQuery(id: UUID): void" style="text;strokeColor=none;fillColor=none;align=left;verticalAlign=top;spacingLeft=4;spacingRight=4;overflow=hidden;rotatable=0;points=[[0,0.5],[1,0.5]];portConstraint=eastwest;whiteSpace=wrap;rounded=0;html=1;" parent="285" vertex="1">
                    <mxGeometry y="474" width="240" height="52" as="geometry"/>
                </mxCell>
                <mxCell id="297" value="+ createSearchQuery(searchQuery: SearchQuery): SearchQuery" style="text;strokeColor=none;fillColor=none;align=left;verticalAlign=top;spacingLeft=4;spacingRight=4;overflow=hidden;rotatable=0;points=[[0,0.5],[1,0.5]];portConstraint=eastwest;whiteSpace=wrap;rounded=0;html=1;" parent="285" vertex="1">
                    <mxGeometry y="526" width="240" height="52" as="geometry"/>
                </mxCell>
                <mxCell id="298" value="+ allDatas(): List&amp;lt;ScrapeData&amp;gt;" style="text;strokeColor=none;fillColor=none;align=left;verticalAlign=top;spacingLeft=4;spacingRight=4;overflow=hidden;rotatable=0;points=[[0,0.5],[1,0.5]];portConstraint=eastwest;whiteSpace=wrap;rounded=0;html=1;" parent="285" vertex="1">
                    <mxGeometry y="578" width="240" height="52" as="geometry"/>
                </mxCell>
                <mxCell id="299" value="+ allDatas(page: int): List&amp;lt;ScrapeData&amp;gt;" style="text;strokeColor=none;fillColor=none;align=left;verticalAlign=top;spacingLeft=4;spacingRight=4;overflow=hidden;rotatable=0;points=[[0,0.5],[1,0.5]];portConstraint=eastwest;whiteSpace=wrap;rounded=0;html=1;" parent="285" vertex="1">
                    <mxGeometry y="630" width="240" height="52" as="geometry"/>
                </mxCell>
                <mxCell id="300" value="+ allJobs(page: int): List&amp;lt;ScrapeJob&amp;gt;" style="text;strokeColor=none;fillColor=none;align=left;verticalAlign=top;spacingLeft=4;spacingRight=4;overflow=hidden;rotatable=0;points=[[0,0.5],[1,0.5]];portConstraint=eastwest;whiteSpace=wrap;rounded=0;html=1;" parent="285" vertex="1">
                    <mxGeometry y="682" width="240" height="52" as="geometry"/>
                </mxCell>
                <mxCell id="301" value="- lambda$3(arg0: UUID): ResourceNotFoundExeption" style="text;strokeColor=none;fillColor=none;align=left;verticalAlign=top;spacingLeft=4;spacingRight=4;overflow=hidden;rotatable=0;points=[[0,0.5],[1,0.5]];portConstraint=eastwest;whiteSpace=wrap;rounded=0;html=1;" parent="285" vertex="1">
                    <mxGeometry y="734" width="240" height="52" as="geometry"/>
                </mxCell>
                <mxCell id="302" value="- lambda$1(arg0: UUID): ResourceNotFoundExeption" style="text;strokeColor=none;fillColor=none;align=left;verticalAlign=top;spacingLeft=4;spacingRight=4;overflow=hidden;rotatable=0;points=[[0,0.5],[1,0.5]];portConstraint=eastwest;whiteSpace=wrap;rounded=0;html=1;" parent="285" vertex="1">
                    <mxGeometry y="786" width="240" height="52" as="geometry"/>
                </mxCell>
                <mxCell id="303" value="+ deleteKey(id: UUID): void" style="text;strokeColor=none;fillColor=none;align=left;verticalAlign=top;spacingLeft=4;spacingRight=4;overflow=hidden;rotatable=0;points=[[0,0.5],[1,0.5]];portConstraint=eastwest;whiteSpace=wrap;rounded=0;html=1;" parent="285" vertex="1">
                    <mxGeometry y="838" width="240" height="26" as="geometry"/>
                </mxCell>
                <mxCell id="304" value="+ createKey(apiKeyRequest: ApiKeyRequest): ApiKey" style="text;strokeColor=none;fillColor=none;align=left;verticalAlign=top;spacingLeft=4;spacingRight=4;overflow=hidden;rotatable=0;points=[[0,0.5],[1,0.5]];portConstraint=eastwest;whiteSpace=wrap;rounded=0;html=1;" parent="285" vertex="1">
                    <mxGeometry y="864" width="240" height="52" as="geometry"/>
                </mxCell>
                <mxCell id="305" value="+ updateKey(id: UUID, updatedApiKey: ApiKeyRequest): ApiKey" style="text;strokeColor=none;fillColor=none;align=left;verticalAlign=top;spacingLeft=4;spacingRight=4;overflow=hidden;rotatable=0;points=[[0,0.5],[1,0.5]];portConstraint=eastwest;whiteSpace=wrap;rounded=0;html=1;" parent="285" vertex="1">
                    <mxGeometry y="916" width="240" height="78" as="geometry"/>
                </mxCell>
                <mxCell id="306" value="- lambda$0(arg0: UUID): ResourceNotFoundExeption" style="text;strokeColor=none;fillColor=none;align=left;verticalAlign=top;spacingLeft=4;spacingRight=4;overflow=hidden;rotatable=0;points=[[0,0.5],[1,0.5]];portConstraint=eastwest;whiteSpace=wrap;rounded=0;html=1;" parent="285" vertex="1">
                    <mxGeometry y="994" width="240" height="52" as="geometry"/>
                </mxCell>
                <mxCell id="307" value="- lambda$2(arg0: String): ResourceNotFoundExeption" style="text;strokeColor=none;fillColor=none;align=left;verticalAlign=top;spacingLeft=4;spacingRight=4;overflow=hidden;rotatable=0;points=[[0,0.5],[1,0.5]];portConstraint=eastwest;whiteSpace=wrap;rounded=0;html=1;" parent="285" vertex="1">
                    <mxGeometry y="1046" width="240" height="52" as="geometry"/>
                </mxCell>
                <mxCell id="308" value="+ isSearchQuerysEmpty(): boolean" style="text;strokeColor=none;fillColor=none;align=left;verticalAlign=top;spacingLeft=4;spacingRight=4;overflow=hidden;rotatable=0;points=[[0,0.5],[1,0.5]];portConstraint=eastwest;whiteSpace=wrap;rounded=0;html=1;" parent="285" vertex="1">
                    <mxGeometry y="1098" width="240" height="26" as="geometry"/>
                </mxCell>
                <mxCell id="309" value="+ createScrapeJobList(urls: List&amp;lt;String&amp;gt;, titles: List&amp;lt;String&amp;gt;): void" style="text;strokeColor=none;fillColor=none;align=left;verticalAlign=top;spacingLeft=4;spacingRight=4;overflow=hidden;rotatable=0;points=[[0,0.5],[1,0.5]];portConstraint=eastwest;whiteSpace=wrap;rounded=0;html=1;" parent="285" vertex="1">
                    <mxGeometry y="1124" width="240" height="78" as="geometry"/>
                </mxCell>
                <mxCell id="310" value="- lambda$4(): RuntimeException" style="text;strokeColor=none;fillColor=none;align=left;verticalAlign=top;spacingLeft=4;spacingRight=4;overflow=hidden;rotatable=0;points=[[0,0.5],[1,0.5]];portConstraint=eastwest;whiteSpace=wrap;rounded=0;html=1;" parent="285" vertex="1">
                    <mxGeometry y="1202" width="240" height="26" as="geometry"/>
                </mxCell>
                <mxCell id="311" value="- lambda$5(): RuntimeException" style="text;strokeColor=none;fillColor=none;align=left;verticalAlign=top;spacingLeft=4;spacingRight=4;overflow=hidden;rotatable=0;points=[[0,0.5],[1,0.5]];portConstraint=eastwest;whiteSpace=wrap;rounded=0;html=1;" parent="285" vertex="1">
                    <mxGeometry y="1228" width="240" height="26" as="geometry"/>
                </mxCell>
                <mxCell id="312" value="+ updateScrapeJob(scrapeJob: ScrapeJob, jobId: UUID): void" style="text;strokeColor=none;fillColor=none;align=left;verticalAlign=top;spacingLeft=4;spacingRight=4;overflow=hidden;rotatable=0;points=[[0,0.5],[1,0.5]];portConstraint=eastwest;whiteSpace=wrap;rounded=0;html=1;" parent="285" vertex="1">
                    <mxGeometry y="1254" width="240" height="52" as="geometry"/>
                </mxCell>
                <mxCell id="313" value="+ createScrapeData(pageData: String, scrapeJobId: UUID): void" style="text;strokeColor=none;fillColor=none;align=left;verticalAlign=top;spacingLeft=4;spacingRight=4;overflow=hidden;rotatable=0;points=[[0,0.5],[1,0.5]];portConstraint=eastwest;whiteSpace=wrap;rounded=0;html=1;" parent="285" vertex="1">
                    <mxGeometry y="1306" width="240" height="52" as="geometry"/>
                </mxCell>
                <mxCell id="314" value="+ getScrapeJob(id: UUID): ScrapeJob" style="text;strokeColor=none;fillColor=none;align=left;verticalAlign=top;spacingLeft=4;spacingRight=4;overflow=hidden;rotatable=0;points=[[0,0.5],[1,0.5]];portConstraint=eastwest;whiteSpace=wrap;rounded=0;html=1;" parent="285" vertex="1">
                    <mxGeometry y="1358" width="240" height="52" as="geometry"/>
                </mxCell>
                <mxCell id="315" value="+ getScrapeJob(link: String): ScrapeJob" style="text;strokeColor=none;fillColor=none;align=left;verticalAlign=top;spacingLeft=4;spacingRight=4;overflow=hidden;rotatable=0;points=[[0,0.5],[1,0.5]];portConstraint=eastwest;whiteSpace=wrap;rounded=0;html=1;" parent="285" vertex="1">
                    <mxGeometry y="1410" width="240" height="52" as="geometry"/>
                </mxCell>
                <mxCell id="316" value="+ createScrapeJob(scrapeJob: ScrapeJob): void" style="text;strokeColor=none;fillColor=none;align=left;verticalAlign=top;spacingLeft=4;spacingRight=4;overflow=hidden;rotatable=0;points=[[0,0.5],[1,0.5]];portConstraint=eastwest;whiteSpace=wrap;rounded=0;html=1;" parent="285" vertex="1">
                    <mxGeometry y="1462" width="240" height="52" as="geometry"/>
                </mxCell>
                <mxCell id="317" value="+ createScrapeJob(link: String, description: String): void" style="text;strokeColor=none;fillColor=none;align=left;verticalAlign=top;spacingLeft=4;spacingRight=4;overflow=hidden;rotatable=0;points=[[0,0.5],[1,0.5]];portConstraint=eastwest;whiteSpace=wrap;rounded=0;html=1;" parent="285" vertex="1">
                    <mxGeometry y="1514" width="240" height="52" as="geometry"/>
                </mxCell>
                <mxCell id="318" value="+ createScrapeJob(link: String): void" style="text;strokeColor=none;fillColor=none;align=left;verticalAlign=top;spacingLeft=4;spacingRight=4;overflow=hidden;rotatable=0;points=[[0,0.5],[1,0.5]];portConstraint=eastwest;whiteSpace=wrap;rounded=0;html=1;" parent="285" vertex="1">
                    <mxGeometry y="1566" width="240" height="52" as="geometry"/>
                </mxCell>
                <mxCell id="319" value="+ scrapeJobExists(link: String): boolean" style="text;strokeColor=none;fillColor=none;align=left;verticalAlign=top;spacingLeft=4;spacingRight=4;overflow=hidden;rotatable=0;points=[[0,0.5],[1,0.5]];portConstraint=eastwest;whiteSpace=wrap;rounded=0;html=1;" parent="285" vertex="1">
                    <mxGeometry y="1618" width="240" height="52" as="geometry"/>
                </mxCell>
                <mxCell id="320" value="+ scrapeJobExists(id: UUID): boolean" style="text;strokeColor=none;fillColor=none;align=left;verticalAlign=top;spacingLeft=4;spacingRight=4;overflow=hidden;rotatable=0;points=[[0,0.5],[1,0.5]];portConstraint=eastwest;whiteSpace=wrap;rounded=0;html=1;" parent="285" vertex="1">
                    <mxGeometry y="1670" width="240" height="52" as="geometry"/>
                </mxCell>
                <mxCell id="321" value="+ getKey(id: UUID): ApiKey" style="text;strokeColor=none;fillColor=none;align=left;verticalAlign=top;spacingLeft=4;spacingRight=4;overflow=hidden;rotatable=0;points=[[0,0.5],[1,0.5]];portConstraint=eastwest;whiteSpace=wrap;rounded=0;html=1;" parent="285" vertex="1">
                    <mxGeometry y="1722" width="240" height="26" as="geometry"/>
                </mxCell>
                <mxCell id="322" value="+ allKeys(page: int): Page&amp;lt;ApiKey&amp;gt;" style="text;strokeColor=none;fillColor=none;align=left;verticalAlign=top;spacingLeft=4;spacingRight=4;overflow=hidden;rotatable=0;points=[[0,0.5],[1,0.5]];portConstraint=eastwest;whiteSpace=wrap;rounded=0;html=1;" parent="285" vertex="1">
                    <mxGeometry y="1748" width="240" height="52" as="geometry"/>
                </mxCell>
                <mxCell id="323" value="&amp;laquo;@Service&amp;raquo;&lt;br&gt;&lt;b&gt;AuthenticationUserDetailsService&lt;/b&gt;" style="swimlane;fontStyle=1;align=center;verticalAlign=top;childLayout=stackLayout;horizontal=1;startSize=30;fillColor=#ffffff;swimlaneFillColor=#ffffff;strokeColor=#000000;html=1;whiteSpace=wrap;" parent="257" vertex="1">
                    <mxGeometry x="20" y="3152" width="240" height="162" as="geometry"/>
                </mxCell>
                <mxCell id="324" value="- userRepository: UserRepository" style="text;strokeColor=none;fillColor=none;align=left;verticalAlign=top;spacingLeft=4;spacingRight=4;overflow=hidden;rotatable=0;points=[[0,0.5],[1,0.5]];portConstraint=eastwest;whiteSpace=wrap;rounded=0;html=1;" parent="323" vertex="1">
                    <mxGeometry y="30" width="240" height="26" as="geometry"/>
                </mxCell>
                <mxCell id="325" value="" style="line;strokeColor=none;fillColor=none;align=left;verticalAlign=middle;spacingLeft=4;spacingRight=4;overflow=hidden;rotatable=0;points=[[0,0.5],[1,0.5]];portConstraint=eastwest;" parent="323" vertex="1">
                    <mxGeometry y="56" width="240" height="2" as="geometry"/>
                </mxCell>
                <mxCell id="326" value="- lambda$0(arg0: String): UsernameNotFoundException" style="text;strokeColor=none;fillColor=none;align=left;verticalAlign=top;spacingLeft=4;spacingRight=4;overflow=hidden;rotatable=0;points=[[0,0.5],[1,0.5]];portConstraint=eastwest;whiteSpace=wrap;rounded=0;html=1;" parent="323" vertex="1">
                    <mxGeometry y="58" width="240" height="52" as="geometry"/>
                </mxCell>
                <mxCell id="327" value="+ loadUserByUsername(email: String): UserDetails" style="text;strokeColor=none;fillColor=none;align=left;verticalAlign=top;spacingLeft=4;spacingRight=4;overflow=hidden;rotatable=0;points=[[0,0.5],[1,0.5]];portConstraint=eastwest;whiteSpace=wrap;rounded=0;html=1;" parent="323" vertex="1">
                    <mxGeometry y="110" width="240" height="52" as="geometry"/>
                </mxCell>
                <mxCell id="328" value="&amp;laquo;@Component&amp;raquo;&lt;br&gt;&lt;b&gt;DrawioGenerator&lt;/b&gt;" style="swimlane;fontStyle=1;align=center;verticalAlign=top;childLayout=stackLayout;horizontal=1;startSize=30;fillColor=#ffffff;swimlaneFillColor=#ffffff;strokeColor=#000000;html=1;whiteSpace=wrap;" parent="2" vertex="1">
                    <mxGeometry x="20" y="15310" width="240" height="1462" as="geometry"/>
                </mxCell>
                <mxCell id="329" value="- log: Logger" style="text;strokeColor=none;fillColor=none;align=left;verticalAlign=top;spacingLeft=4;spacingRight=4;overflow=hidden;rotatable=0;points=[[0,0.5],[1,0.5]];portConstraint=eastwest;whiteSpace=wrap;rounded=0;html=1;" parent="328" vertex="1">
                    <mxGeometry y="30" width="240" height="26" as="geometry"/>
                </mxCell>
                <mxCell id="330" value="- ctx: ApplicationContext" style="text;strokeColor=none;fillColor=none;align=left;verticalAlign=top;spacingLeft=4;spacingRight=4;overflow=hidden;rotatable=0;points=[[0,0.5],[1,0.5]];portConstraint=eastwest;whiteSpace=wrap;rounded=0;html=1;" parent="328" vertex="1">
                    <mxGeometry y="56" width="240" height="26" as="geometry"/>
                </mxCell>
                <mxCell id="331" value="- rootPackage: String" style="text;strokeColor=none;fillColor=none;align=left;verticalAlign=top;spacingLeft=4;spacingRight=4;overflow=hidden;rotatable=0;points=[[0,0.5],[1,0.5]];portConstraint=eastwest;whiteSpace=wrap;rounded=0;html=1;" parent="328" vertex="1">
                    <mxGeometry y="82" width="240" height="26" as="geometry"/>
                </mxCell>
                <mxCell id="332" value="- outputFile: String" style="text;strokeColor=none;fillColor=none;align=left;verticalAlign=top;spacingLeft=4;spacingRight=4;overflow=hidden;rotatable=0;points=[[0,0.5],[1,0.5]];portConstraint=eastwest;whiteSpace=wrap;rounded=0;html=1;" parent="328" vertex="1">
                    <mxGeometry y="108" width="240" height="26" as="geometry"/>
                </mxCell>
                <mxCell id="333" value="- DEFAULT_HEADER_HEIGHT: int" style="text;strokeColor=none;fillColor=none;align=left;verticalAlign=top;spacingLeft=4;spacingRight=4;overflow=hidden;rotatable=0;points=[[0,0.5],[1,0.5]];portConstraint=eastwest;whiteSpace=wrap;rounded=0;html=1;" parent="328" vertex="1">
                    <mxGeometry y="134" width="240" height="26" as="geometry"/>
                </mxCell>
                <mxCell id="334" value="- DEFAULT_AVG_CHAR_WIDTH: int" style="text;strokeColor=none;fillColor=none;align=left;verticalAlign=top;spacingLeft=4;spacingRight=4;overflow=hidden;rotatable=0;points=[[0,0.5],[1,0.5]];portConstraint=eastwest;whiteSpace=wrap;rounded=0;html=1;" parent="328" vertex="1">
                    <mxGeometry y="160" width="240" height="26" as="geometry"/>
                </mxCell>
                <mxCell id="335" value="- DEFAULT_TEXT_PADDING: int" style="text;strokeColor=none;fillColor=none;align=left;verticalAlign=top;spacingLeft=4;spacingRight=4;overflow=hidden;rotatable=0;points=[[0,0.5],[1,0.5]];portConstraint=eastwest;whiteSpace=wrap;rounded=0;html=1;" parent="328" vertex="1">
                    <mxGeometry y="186" width="240" height="26" as="geometry"/>
                </mxCell>
                <mxCell id="336" value="- DEFAULT_LINE_HEIGHT: int" style="text;strokeColor=none;fillColor=none;align=left;verticalAlign=top;spacingLeft=4;spacingRight=4;overflow=hidden;rotatable=0;points=[[0,0.5],[1,0.5]];portConstraint=eastwest;whiteSpace=wrap;rounded=0;html=1;" parent="328" vertex="1">
                    <mxGeometry y="212" width="240" height="26" as="geometry"/>
                </mxCell>
                <mxCell id="337" value="- DEFAULT_DIVIDER_HEIGHT: int" style="text;strokeColor=none;fillColor=none;align=left;verticalAlign=top;spacingLeft=4;spacingRight=4;overflow=hidden;rotatable=0;points=[[0,0.5],[1,0.5]];portConstraint=eastwest;whiteSpace=wrap;rounded=0;html=1;" parent="328" vertex="1">
                    <mxGeometry y="238" width="240" height="26" as="geometry"/>
                </mxCell>
                <mxCell id="338" value="- DEFAULT_PACKAGE_PADDING: int" style="text;strokeColor=none;fillColor=none;align=left;verticalAlign=top;spacingLeft=4;spacingRight=4;overflow=hidden;rotatable=0;points=[[0,0.5],[1,0.5]];portConstraint=eastwest;whiteSpace=wrap;rounded=0;html=1;" parent="328" vertex="1">
                    <mxGeometry y="264" width="240" height="26" as="geometry"/>
                </mxCell>
                <mxCell id="339" value="- DEFAULT_V_GAP: int" style="text;strokeColor=none;fillColor=none;align=left;verticalAlign=top;spacingLeft=4;spacingRight=4;overflow=hidden;rotatable=0;points=[[0,0.5],[1,0.5]];portConstraint=eastwest;whiteSpace=wrap;rounded=0;html=1;" parent="328" vertex="1">
                    <mxGeometry y="290" width="240" height="26" as="geometry"/>
                </mxCell>
                <mxCell id="340" value="- DEFAULT_H_GAP: int" style="text;strokeColor=none;fillColor=none;align=left;verticalAlign=top;spacingLeft=4;spacingRight=4;overflow=hidden;rotatable=0;points=[[0,0.5],[1,0.5]];portConstraint=eastwest;whiteSpace=wrap;rounded=0;html=1;" parent="328" vertex="1">
                    <mxGeometry y="316" width="240" height="26" as="geometry"/>
                </mxCell>
                <mxCell id="341" value="- DEFAULT_MIN_WIDTH: int" style="text;strokeColor=none;fillColor=none;align=left;verticalAlign=top;spacingLeft=4;spacingRight=4;overflow=hidden;rotatable=0;points=[[0,0.5],[1,0.5]];portConstraint=eastwest;whiteSpace=wrap;rounded=0;html=1;" parent="328" vertex="1">
                    <mxGeometry y="342" width="240" height="26" as="geometry"/>
                </mxCell>
                <mxCell id="342" value="" style="line;strokeColor=none;fillColor=none;align=left;verticalAlign=middle;spacingLeft=4;spacingRight=4;overflow=hidden;rotatable=0;points=[[0,0.5],[1,0.5]];portConstraint=eastwest;" parent="328" vertex="1">
                    <mxGeometry y="368" width="240" height="2" as="geometry"/>
                </mxCell>
                <mxCell id="343" value="- getVisibility(modifiers: int): String" style="text;strokeColor=none;fillColor=none;align=left;verticalAlign=top;spacingLeft=4;spacingRight=4;overflow=hidden;rotatable=0;points=[[0,0.5],[1,0.5]];portConstraint=eastwest;whiteSpace=wrap;rounded=0;html=1;" parent="328" vertex="1">
                    <mxGeometry y="370" width="240" height="52" as="geometry"/>
                </mxCell>
                <mxCell id="344" value="- generateNode(type: Class&amp;lt;?&amp;gt;): Node" style="text;strokeColor=none;fillColor=none;align=left;verticalAlign=top;spacingLeft=4;spacingRight=4;overflow=hidden;rotatable=0;points=[[0,0.5],[1,0.5]];portConstraint=eastwest;whiteSpace=wrap;rounded=0;html=1;" parent="328" vertex="1">
                    <mxGeometry y="422" width="240" height="52" as="geometry"/>
                </mxCell>
                <mxCell id="345" value="- isRelevantBean(type: Class&amp;lt;?&amp;gt;): boolean" style="text;strokeColor=none;fillColor=none;align=left;verticalAlign=top;spacingLeft=4;spacingRight=4;overflow=hidden;rotatable=0;points=[[0,0.5],[1,0.5]];portConstraint=eastwest;whiteSpace=wrap;rounded=0;html=1;" parent="328" vertex="1">
                    <mxGeometry y="474" width="240" height="52" as="geometry"/>
                </mxCell>
                <mxCell id="346" value="- getSpringAnnotation(type: Class&amp;lt;?&amp;gt;): String" style="text;strokeColor=none;fillColor=none;align=left;verticalAlign=top;spacingLeft=4;spacingRight=4;overflow=hidden;rotatable=0;points=[[0,0.5],[1,0.5]];portConstraint=eastwest;whiteSpace=wrap;rounded=0;html=1;" parent="328" vertex="1">
                    <mxGeometry y="526" width="240" height="52" as="geometry"/>
                </mxCell>
                <mxCell id="347" value="- calculatePackageHeight(pkgNode: PackageNode, context: BuildContext): int" style="text;strokeColor=none;fillColor=none;align=left;verticalAlign=top;spacingLeft=4;spacingRight=4;overflow=hidden;rotatable=0;points=[[0,0.5],[1,0.5]];portConstraint=eastwest;whiteSpace=wrap;rounded=0;html=1;" parent="328" vertex="1">
                    <mxGeometry y="578" width="240" height="78" as="geometry"/>
                </mxCell>
                <mxCell id="348" value="- calculatePackageWidth(pkgNode: PackageNode, context: BuildContext): int" style="text;strokeColor=none;fillColor=none;align=left;verticalAlign=top;spacingLeft=4;spacingRight=4;overflow=hidden;rotatable=0;points=[[0,0.5],[1,0.5]];portConstraint=eastwest;whiteSpace=wrap;rounded=0;html=1;" parent="328" vertex="1">
                    <mxGeometry y="656" width="240" height="78" as="geometry"/>
                </mxCell>
                <mxCell id="349" value="- escapeXmlAttributeValue(s: String): String" style="text;strokeColor=none;fillColor=none;align=left;verticalAlign=top;spacingLeft=4;spacingRight=4;overflow=hidden;rotatable=0;points=[[0,0.5],[1,0.5]];portConstraint=eastwest;whiteSpace=wrap;rounded=0;html=1;" parent="328" vertex="1">
                    <mxGeometry y="734" width="240" height="52" as="geometry"/>
                </mxCell>
                <mxCell id="350" value="- isValidXml(xml: String): boolean" style="text;strokeColor=none;fillColor=none;align=left;verticalAlign=top;spacingLeft=4;spacingRight=4;overflow=hidden;rotatable=0;points=[[0,0.5],[1,0.5]];portConstraint=eastwest;whiteSpace=wrap;rounded=0;html=1;" parent="328" vertex="1">
                    <mxGeometry y="786" width="240" height="52" as="geometry"/>
                </mxCell>
                <mxCell id="351" value="- getLines(s: String, textWidth: int, avgCharWidth: int): int" style="text;strokeColor=none;fillColor=none;align=left;verticalAlign=top;spacingLeft=4;spacingRight=4;overflow=hidden;rotatable=0;points=[[0,0.5],[1,0.5]];portConstraint=eastwest;whiteSpace=wrap;rounded=0;html=1;" parent="328" vertex="1">
                    <mxGeometry y="838" width="240" height="52" as="geometry"/>
                </mxCell>
                <mxCell id="352" value="- calculateTextWidth(s: String, avgCharWidth: int, textPadding: int): int" style="text;strokeColor=none;fillColor=none;align=left;verticalAlign=top;spacingLeft=4;spacingRight=4;overflow=hidden;rotatable=0;points=[[0,0.5],[1,0.5]];portConstraint=eastwest;whiteSpace=wrap;rounded=0;html=1;" parent="328" vertex="1">
                    <mxGeometry y="890" width="240" height="78" as="geometry"/>
                </mxCell>
                <mxCell id="353" value="- buildDrawioXml(packageTree: PackageTree, nodes: Map&amp;lt;String, Node&amp;gt;, edges: List&amp;lt;Edge&amp;gt;): String" style="text;strokeColor=none;fillColor=none;align=left;verticalAlign=top;spacingLeft=4;spacingRight=4;overflow=hidden;rotatable=0;points=[[0,0.5],[1,0.5]];portConstraint=eastwest;whiteSpace=wrap;rounded=0;html=1;" parent="328" vertex="1">
                    <mxGeometry y="968" width="240" height="104" as="geometry"/>
                </mxCell>
                <mxCell id="354" value="- calculateNodeSize(node: Node, avgCharWidth: int, textPadding: int, lineHeight: int, dividerHeight: int, headerHeight: int): int" style="text;strokeColor=none;fillColor=none;align=left;verticalAlign=top;spacingLeft=4;spacingRight=4;overflow=hidden;rotatable=0;points=[[0,0.5],[1,0.5]];portConstraint=eastwest;whiteSpace=wrap;rounded=0;html=1;" parent="328" vertex="1">
                    <mxGeometry y="1072" width="240" height="130" as="geometry"/>
                </mxCell>
                <mxCell id="355" value="- buildPackageXml(pkgNode: PackageNode, parentId: int, context: BuildContext): void" style="text;strokeColor=none;fillColor=none;align=left;verticalAlign=top;spacingLeft=4;spacingRight=4;overflow=hidden;rotatable=0;points=[[0,0.5],[1,0.5]];portConstraint=eastwest;whiteSpace=wrap;rounded=0;html=1;" parent="328" vertex="1">
                    <mxGeometry y="1202" width="240" height="78" as="geometry"/>
                </mxCell>
                <mxCell id="356" value="- isCollectionType(genericType: Type, rawType: Class&amp;lt;?&amp;gt;): boolean" style="text;strokeColor=none;fillColor=none;align=left;verticalAlign=top;spacingLeft=4;spacingRight=4;overflow=hidden;rotatable=0;points=[[0,0.5],[1,0.5]];portConstraint=eastwest;whiteSpace=wrap;rounded=0;html=1;" parent="328" vertex="1">
                    <mxGeometry y="1280" width="240" height="78" as="geometry"/>
                </mxCell>
                <mxCell id="357" value="- extractFieldType(type: Type): Class&amp;lt;?&amp;gt;" style="text;strokeColor=none;fillColor=none;align=left;verticalAlign=top;spacingLeft=4;spacingRight=4;overflow=hidden;rotatable=0;points=[[0,0.5],[1,0.5]];portConstraint=eastwest;whiteSpace=wrap;rounded=0;html=1;" parent="328" vertex="1">
                    <mxGeometry y="1358" width="240" height="52" as="geometry"/>
                </mxCell>
                <mxCell id="358" value="+ run(args: String[]): void" style="text;strokeColor=none;fillColor=none;align=left;verticalAlign=top;spacingLeft=4;spacingRight=4;overflow=hidden;rotatable=0;points=[[0,0.5],[1,0.5]];portConstraint=eastwest;whiteSpace=wrap;rounded=0;html=1;" parent="328" vertex="1">
                    <mxGeometry y="1410" width="240" height="26" as="geometry"/>
                </mxCell>
                <mxCell id="359" value="- getTypeName(type: Type): String" style="text;strokeColor=none;fillColor=none;align=left;verticalAlign=top;spacingLeft=4;spacingRight=4;overflow=hidden;rotatable=0;points=[[0,0.5],[1,0.5]];portConstraint=eastwest;whiteSpace=wrap;rounded=0;html=1;" parent="328" vertex="1">
                    <mxGeometry y="1436" width="240" height="26" as="geometry"/>
                </mxCell>
                <mxCell id="360" value="&amp;laquo;@Component&amp;raquo;&lt;br&gt;&lt;b&gt;ScrapeApplication&lt;/b&gt;" style="swimlane;fontStyle=1;align=center;verticalAlign=top;childLayout=stackLayout;horizontal=1;startSize=30;fillColor=#ffffff;swimlaneFillColor=#ffffff;strokeColor=#000000;html=1;whiteSpace=wrap;" parent="2" vertex="1">
                    <mxGeometry x="20" y="16812" width="240" height="56" as="geometry"/>
                </mxCell>
                <mxCell id="361" value="+ main(args: String[]): void" style="text;strokeColor=none;fillColor=none;align=left;verticalAlign=top;spacingLeft=4;spacingRight=4;overflow=hidden;rotatable=0;points=[[0,0.5],[1,0.5]];portConstraint=eastwest;whiteSpace=wrap;rounded=0;html=1;" parent="360" vertex="1">
                    <mxGeometry y="30" width="240" height="26" as="geometry"/>
                </mxCell>
                <mxCell id="362" value="" style="edgeStyle=orthogonalEdgeStyle;rounded=0;orthogonalLoop=1;jettySize=auto;html=1;startArrow=diamond;startFill=1;endArrow=none;" parent="1" source="258" target="97" edge="1">
                    <mxGeometry relative="1" as="geometry"/>
                </mxCell>
                <mxCell id="363" value="" style="edgeStyle=orthogonalEdgeStyle;rounded=0;orthogonalLoop=1;jettySize=auto;html=1;startArrow=diamond;startFill=1;endArrow=none;" parent="1" source="276" target="80" edge="1">
                    <mxGeometry relative="1" as="geometry"/>
                </mxCell>
                <mxCell id="364" value="" style="edgeStyle=orthogonalEdgeStyle;rounded=0;orthogonalLoop=1;jettySize=auto;html=1;startArrow=diamond;startFill=1;endArrow=none;" parent="1" source="276" target="97" edge="1">
                    <mxGeometry relative="1" as="geometry"/>
                </mxCell>
                <mxCell id="365" value="" style="edgeStyle=orthogonalEdgeStyle;rounded=0;orthogonalLoop=1;jettySize=auto;html=1;startArrow=diamond;startFill=1;endArrow=none;" parent="1" source="276" target="258" edge="1">
                    <mxGeometry relative="1" as="geometry"/>
                </mxCell>
                <mxCell id="366" value="" style="edgeStyle=orthogonalEdgeStyle;rounded=0;orthogonalLoop=1;jettySize=auto;html=1;startArrow=diamond;startFill=1;endArrow=none;" parent="1" source="27" target="276" edge="1">
                    <mxGeometry relative="1" as="geometry"/>
                </mxCell>
                <mxCell id="367" value="" style="edgeStyle=orthogonalEdgeStyle;rounded=0;orthogonalLoop=1;jettySize=auto;html=1;startArrow=diamond;startFill=1;endArrow=none;" parent="1" source="285" target="139" edge="1">
                    <mxGeometry relative="1" as="geometry"/>
                </mxCell>
                <mxCell id="368" value="" style="edgeStyle=orthogonalEdgeStyle;rounded=0;orthogonalLoop=1;jettySize=auto;html=1;startArrow=diamond;startFill=1;endArrow=none;" parent="1" source="130" target="285" edge="1">
                    <mxGeometry relative="1" as="geometry"/>
                </mxCell>
                <mxCell id="369" value="" style="edgeStyle=orthogonalEdgeStyle;rounded=0;orthogonalLoop=1;jettySize=auto;html=1;startArrow=diamond;startFill=1;endArrow=none;" parent="1" source="31" target="258" edge="1">
                    <mxGeometry relative="1" as="geometry"/>
                </mxCell>
                <mxCell id="370" value="" style="edgeStyle=orthogonalEdgeStyle;rounded=0;orthogonalLoop=1;jettySize=auto;html=1;startArrow=diamond;startFill=1;endArrow=none;" parent="1" source="31" target="80" edge="1">
                    <mxGeometry relative="1" as="geometry"/>
                </mxCell>
                <mxCell id="371" value="" style="edgeStyle=orthogonalEdgeStyle;rounded=0;orthogonalLoop=1;jettySize=auto;html=1;startArrow=diamond;startFill=1;endArrow=none;" parent="1" source="17" target="24" edge="1">
                    <mxGeometry relative="1" as="geometry"/>
                </mxCell>
                <mxCell id="372" value="" style="edgeStyle=orthogonalEdgeStyle;rounded=0;orthogonalLoop=1;jettySize=auto;html=1;startArrow=diamond;startFill=1;endArrow=none;" parent="1" source="17" target="130" edge="1">
                    <mxGeometry relative="1" as="geometry"/>
                </mxCell>
                <mxCell id="373" value="" style="edgeStyle=orthogonalEdgeStyle;rounded=0;orthogonalLoop=1;jettySize=auto;html=1;startArrow=diamond;startFill=1;endArrow=none;" parent="1" source="149" target="285" edge="1">
                    <mxGeometry relative="1" as="geometry"/>
                </mxCell>
                <mxCell id="374" value="" style="edgeStyle=orthogonalEdgeStyle;rounded=0;orthogonalLoop=1;jettySize=auto;html=1;startArrow=diamond;startFill=1;endArrow=none;" parent="1" source="75" target="80" edge="1">
                    <mxGeometry relative="1" as="geometry"/>
                </mxCell>
                <mxCell id="375" value="" style="edgeStyle=orthogonalEdgeStyle;rounded=0;orthogonalLoop=1;jettySize=auto;html=1;startArrow=diamond;startFill=1;endArrow=none;" parent="1" source="159" target="130" edge="1">
                    <mxGeometry relative="1" as="geometry"/>
                </mxCell>
                <mxCell id="376" value="" style="edgeStyle=orthogonalEdgeStyle;rounded=0;orthogonalLoop=1;jettySize=auto;html=1;startArrow=diamond;startFill=1;endArrow=none;" parent="1" source="159" target="285" edge="1">
                    <mxGeometry relative="1" as="geometry"/>
                </mxCell>
                <mxCell id="377" value="" style="edgeStyle=orthogonalEdgeStyle;rounded=0;orthogonalLoop=1;jettySize=auto;html=1;startArrow=diamond;startFill=1;endArrow=none;" parent="1" source="159" target="149" edge="1">
                    <mxGeometry relative="1" as="geometry"/>
                </mxCell>
                <mxCell id="378" value="" style="edgeStyle=orthogonalEdgeStyle;rounded=0;orthogonalLoop=1;jettySize=auto;html=1;startArrow=diamond;startFill=1;endArrow=none;" parent="1" source="159" target="139" edge="1">
                    <mxGeometry relative="1" as="geometry"/>
                </mxCell>
                <mxCell id="379" value="" style="edgeStyle=orthogonalEdgeStyle;rounded=0;orthogonalLoop=1;jettySize=auto;html=1;startArrow=diamond;startFill=1;endArrow=none;" parent="1" source="37" target="276" edge="1">
                    <mxGeometry relative="1" as="geometry"/>
                </mxCell>
                <mxCell id="380" value="" style="edgeStyle=orthogonalEdgeStyle;rounded=0;orthogonalLoop=1;jettySize=auto;html=1;startArrow=diamond;startFill=1;endArrow=none;" parent="1" source="42" target="285" edge="1">
                    <mxGeometry relative="1" as="geometry"/>
                </mxCell>
                <mxCell id="381" value="" style="edgeStyle=orthogonalEdgeStyle;rounded=0;orthogonalLoop=1;jettySize=auto;html=1;startArrow=diamond;startFill=1;endArrow=none;" parent="1" source="42" target="149" edge="1">
                    <mxGeometry relative="1" as="geometry"/>
                </mxCell>
                <mxCell id="382" value="" style="edgeStyle=orthogonalEdgeStyle;rounded=0;orthogonalLoop=1;jettySize=auto;html=1;startArrow=diamond;startFill=1;endArrow=none;" parent="1" source="42" target="130" edge="1">
                    <mxGeometry relative="1" as="geometry"/>
                </mxCell>
                <mxCell id="383" value="" style="edgeStyle=orthogonalEdgeStyle;rounded=0;orthogonalLoop=1;jettySize=auto;html=1;startArrow=diamond;startFill=1;endArrow=none;" parent="1" source="42" target="328" edge="1">
                    <mxGeometry relative="1" as="geometry"/>
                </mxCell>
            </root>
        </mxGraphModel>
    </diagram>
</mxfile>